<svg width="1047" height="634" viewBox="0 0 1047 634" fill="none" xmlns="http://www.w3.org/2000/svg">
<path d="M541.408 325.069C601.843 312.278 667.167 414.455 716.374 348.045C765.58 281.634 515.28 267.002 518.246 228.606C521.212 190.21 576.906 188.857 582.851 159.596C590.654 121.187 534.841 132.369 506.785 111.042C436.429 57.5619 417.428 5.26524 417.428 5.26524M401.994 435.603C310.445 413.863 438.416 261.932 348.383 268.691M242.094 439.056C171.311 489.208 1.2891 404.882 5.73242 525.201C9.76144 634.301 132.681 540.256 204.833 568.961C254.138 588.577 257.645 643.497 313.023 624.327C345.479 613.092 358.465 567.283 395.039 539.044C449.863 496.713 513.585 593.765 582.851 593.765M768 446C908 545.001 976 508.5 976 508.5C998.166 503.985 1042.3 480.265 1041.5 421.5C1040.7 362.736 917 398.5 942.5 478.5C945.551 488.072 954.8 518.566 976 542.5" stroke="#2052B6" stroke-width="10" stroke-linecap="round"/>
</svg>
