<svg width="771" height="634" viewBox="0 0 771 634" fill="none" xmlns="http://www.w3.org/2000/svg">
<path d="M417.426 5.2654C417.426 5.2654 436.427 57.562 506.783 111.042C534.839 132.369 590.652 121.187 582.849 159.596C576.905 188.857 521.211 190.21 518.245 228.606C515.278 267.002 765.578 281.635 716.372 348.045C667.166 414.456 601.842 312.278 541.406 325.07C482.829 337.468 452.987 447.713 401.992 435.603C310.443 413.863 438.415 261.933 348.381 268.691C268.719 274.671 309.091 391.585 242.092 439.056C171.31 489.208 1.28734 404.883 5.73066 525.201C9.75968 634.301 132.679 540.257 204.832 568.962C254.136 588.577 257.643 643.498 313.021 624.328C345.477 613.093 358.463 567.284 395.037 539.044C449.862 496.713 513.584 593.766 582.849 593.766C782.926 593.766 648.5 422 765.5 445" stroke="#2052B6" stroke-width="10" stroke-linecap="round"/>
</svg>
