<svg width="1195" height="1003" viewBox="0 0 1195 1003" fill="none" xmlns="http://www.w3.org/2000/svg">
<path d="M531.426 5.2654C531.426 5.2654 550.427 57.562 620.783 111.042C648.839 132.369 704.652 121.187 696.849 159.596C690.905 188.857 635.211 190.21 632.245 228.606C629.278 267.002 879.578 281.635 830.372 348.045C781.166 414.456 715.842 312.278 655.406 325.07C596.829 337.468 566.987 447.713 515.992 435.603C424.443 413.863 552.415 261.933 462.381 268.691C382.719 274.671 423.091 391.585 356.092 439.056C285.31 489.208 115.287 404.883 119.731 525.201C123.76 634.301 246.679 540.257 318.832 568.962C368.136 588.577 371.643 643.498 427.021 624.328C459.477 613.093 472.463 567.284 509.037 539.044C563.862 496.713 627.584 593.766 696.849 593.766C896.926 593.766 762.5 422 879.5 445" stroke="#2052B6" stroke-width="10" stroke-linecap="round"/>
<rect x="313.653" y="341.164" width="666.865" height="88.609" fill="#F7F7F7"/>
<rect x="313.653" y="452.746" width="621.576" height="88.609" fill="#F7F7F7"/>
<path d="M327.7 354.947H340.932C348.073 354.947 353.272 356.339 356.527 359.122C359.783 361.905 361.411 365.58 361.411 370.149C361.411 373.037 360.833 375.583 359.678 377.789C358.575 379.994 357.026 381.596 355.031 382.593C357.551 383.906 359.546 385.665 361.017 387.871C362.487 390.023 363.222 393.227 363.222 397.48C363.222 408.507 354.532 414.02 337.151 414.02H327.7V354.947ZM341.641 378.97C344.686 378.97 346.944 378.471 348.415 377.474C349.937 376.476 350.699 374.428 350.699 371.33C350.699 368.6 349.832 366.736 348.099 365.738C346.419 364.688 344.109 364.163 341.168 364.163H338.884V378.97H341.641ZM341.405 404.805C345.185 404.805 347.916 403.886 349.596 402.048C351.276 400.158 352.116 398.11 352.116 395.904C352.116 392.491 351.198 390.233 349.36 389.131C347.574 387.976 345.054 387.398 341.798 387.398H339.278V404.805H341.405Z" fill="#111111"/>
<path d="M396.916 388.107H392.426V413.548L380.927 414.493V355.42L394.947 354.947C401.72 354.947 407.024 356.313 410.857 359.043C414.69 361.721 416.607 365.843 416.607 371.409C416.607 375.085 415.871 378.104 414.401 380.467C412.983 382.83 410.909 384.799 408.179 386.374L413.456 399.213L418.812 411.972L407.47 415.044L396.916 388.107ZM396.364 379.6C399.095 379.6 401.221 379.049 402.744 377.946C404.319 376.791 405.107 374.638 405.107 371.488C405.107 366.604 402.692 364.163 397.861 364.163H392.426V379.6H396.364Z" fill="#111111"/>
<path d="M430.739 414.02L443.184 355.656L459.645 354.947L472.405 413.548L459.803 414.02L457.676 401.339H443.578L441.057 414.02H430.739ZM445.704 391.888H455.55L450.115 363.611L445.704 391.888Z" fill="#111111"/>
<path d="M516.178 414.493L498.929 377.553V413.548L488.611 414.02V355.42L500.662 354.947L515.942 390.076V355.893L525.709 354.947V413.548L516.178 414.493Z" fill="#111111"/>
<path d="M546.607 354.947H558.737C566.508 354.947 572.31 357.415 576.143 362.351C579.977 367.287 581.893 374.743 581.893 384.72C581.893 390.023 581.158 394.881 579.688 399.291C578.27 403.702 575.986 407.273 572.835 410.003C569.685 412.681 565.668 414.02 560.784 414.02H546.607V354.947ZM559.761 404.805C563.751 404.805 566.508 403.098 568.031 399.685C569.606 396.22 570.394 391.966 570.394 386.925V384.247C570.394 380.624 570.157 377.421 569.685 374.638C569.265 371.803 568.241 369.361 566.613 367.313C565.038 365.213 562.649 364.163 559.445 364.163H558.107V404.805H559.761Z" fill="#111111"/>
<path d="M600.065 414.493V355.893L611.643 354.947V413.548L600.065 414.493Z" fill="#111111"/>
<path d="M660.091 414.493L642.842 377.553V413.548L632.524 414.02V355.42L644.575 354.947L659.855 390.076V355.893L669.622 354.947V413.548L660.091 414.493Z" fill="#111111"/>
<path d="M705.012 415.123C699.184 415.123 694.904 412.209 692.174 406.38C689.496 400.552 688.157 393.174 688.157 384.247C688.157 379.259 688.787 374.455 690.047 369.834C691.36 365.213 693.434 361.406 696.27 358.413C699.158 355.367 702.833 353.845 707.296 353.845C711.13 353.845 714.306 354.79 716.827 356.68C719.4 358.518 721.29 360.986 722.498 364.084C723.758 367.13 724.388 370.516 724.388 374.244L713.44 374.953L713.204 373.299C712.889 370.201 712.337 367.733 711.55 365.896C710.762 364.058 709.292 363.139 707.139 363.139C704.408 363.139 702.466 365.344 701.31 369.755C700.208 374.113 699.656 379.154 699.656 384.878C699.656 388.921 699.788 392.36 700.05 395.196C700.313 398.031 700.995 400.525 702.098 402.678C703.201 404.778 704.907 405.829 707.218 405.829C709.16 405.829 710.683 404.621 711.786 402.206C712.941 399.79 713.519 396.823 713.519 393.305H707.69L708.635 384.484H724.624V413.548L720.214 414.02L717.536 403.072C717.063 405.12 716.459 406.958 715.724 408.585C715.041 410.213 713.834 411.71 712.101 413.075C710.368 414.44 708.005 415.123 705.012 415.123Z" fill="#111111"/>
<path d="M772.975 414.02V355.893L784.475 354.947V404.805H803.851L802.669 414.02H772.975Z" fill="#111111"/>
<path d="M819.741 414.493V355.893L831.319 354.947V413.548L819.741 414.493Z" fill="#111111"/>
<path d="M878.507 415.044L868.268 387.556L863.779 395.353V414.02H852.2V355.893L863.779 354.947V380.782L877.799 354.947H890.086L877.405 379.364L890.243 412.366L878.507 415.044Z" fill="#111111"/>
<path d="M906.427 414.02V354.947H936.436L935.491 364.163H918.006V378.261H930.45L930.371 388.186H918.006V404.805H937.066L936.121 414.02H906.427Z" fill="#111111"/>
<path d="M355.267 526.074L338.018 489.134V525.129L327.7 525.602V467.002L339.751 466.529L355.031 501.658V467.474L364.797 466.529V525.129L355.267 526.074Z" fill="#111111"/>
<path d="M385.696 525.602V466.529H415.704L414.759 475.744H397.274V489.843H409.718L409.64 499.767H397.274V516.386H416.335L415.389 525.602H385.696Z" fill="#111111"/>
<path d="M442.673 525.602L428.732 467.002L442.437 466.529L450.234 507.329L458.426 467.002L469.531 466.529L455.354 525.602H442.673Z" fill="#111111"/>
<path d="M485.458 525.602V466.529H515.467L514.521 475.744H497.036V489.843H509.48L509.402 499.767H497.036V516.386H516.097L515.151 525.602H485.458Z" fill="#111111"/>
<path d="M549.366 499.689H544.877V525.129L533.377 526.074V467.002L547.397 466.529C554.171 466.529 559.474 467.894 563.307 470.625C567.141 473.303 569.057 477.425 569.057 482.991C569.057 486.666 568.322 489.686 566.852 492.049C565.434 494.411 563.36 496.381 560.629 497.956L565.907 510.794L571.262 523.554L559.921 526.626L549.366 499.689ZM548.815 491.182C551.545 491.182 553.672 490.631 555.195 489.528C556.77 488.373 557.558 486.22 557.558 483.069C557.558 478.186 555.142 475.744 550.311 475.744H544.877V491.182H548.815Z" fill="#111111"/>
<path d="M616.833 466.529H630.065C637.206 466.529 642.405 467.921 645.66 470.704C648.916 473.487 650.544 477.162 650.544 481.73C650.544 484.618 649.966 487.165 648.811 489.371C647.708 491.576 646.159 493.177 644.164 494.175C646.684 495.488 648.679 497.247 650.15 499.452C651.62 501.605 652.355 504.808 652.355 509.061C652.355 520.088 643.665 525.602 626.284 525.602H616.833V466.529ZM630.774 490.552C633.819 490.552 636.077 490.053 637.548 489.055C639.07 488.058 639.832 486.01 639.832 482.912C639.832 480.181 638.965 478.317 637.233 477.32C635.552 476.27 633.242 475.744 630.301 475.744H628.017V490.552H630.774ZM630.538 516.386C634.318 516.386 637.049 515.468 638.729 513.63C640.409 511.739 641.249 509.692 641.249 507.486C641.249 504.073 640.331 501.815 638.493 500.713C636.707 499.557 634.187 498.98 630.931 498.98H628.411V516.386H630.538Z" fill="#111111"/>
<path d="M670.06 525.602V466.529H700.069L699.123 475.744H681.638V489.843H694.083L694.004 499.767H681.638V516.386H700.699L699.754 525.602H670.06Z" fill="#111111"/>
<path d="M717.979 526.074V466.529H747.988L747.043 475.823H729.558V491.261H741.923V501.028H729.558V525.129L717.979 526.074Z" fill="#111111"/>
<path d="M779.963 526.704C773.294 526.704 768.595 523.843 765.864 518.119C763.187 512.343 761.848 504.887 761.848 495.75C761.848 486.036 763.292 478.554 766.18 473.303C769.068 468.052 773.715 465.426 780.121 465.426C792.355 465.426 798.473 475.429 798.473 495.435C798.473 504.414 797.081 511.871 794.298 517.804C791.568 523.738 786.789 526.704 779.963 526.704ZM780.121 517.41C782.904 517.41 784.741 515.599 785.634 511.976C786.527 508.3 786.973 502.76 786.973 495.357C786.973 489.423 786.527 484.513 785.634 480.628C784.794 476.69 782.956 474.721 780.121 474.721C777.285 474.721 775.447 476.663 774.607 480.549C773.767 484.435 773.347 489.344 773.347 495.278C773.347 502.734 773.767 508.3 774.607 511.976C775.5 515.599 777.338 517.41 780.121 517.41Z" fill="#111111"/>
<path d="M833.115 499.689H828.626V525.129L817.126 526.074V467.002L831.146 466.529C837.92 466.529 843.223 467.894 847.056 470.625C850.889 473.303 852.806 477.425 852.806 482.991C852.806 486.666 852.071 489.686 850.601 492.049C849.183 494.411 847.109 496.381 844.378 497.956L849.655 510.794L855.011 523.554L843.669 526.626L833.115 499.689ZM832.564 491.182C835.294 491.182 837.421 490.631 838.944 489.528C840.519 488.373 841.306 486.22 841.306 483.069C841.306 478.186 838.891 475.744 834.06 475.744H828.626V491.182H832.564Z" fill="#111111"/>
<path d="M871.507 525.602V466.529H901.516L900.57 475.744H883.085V489.843H895.53L895.451 499.767H883.085V516.386H902.146L901.201 525.602H871.507Z" fill="#111111"/>
<g clip-path="url(#clip0_459_68)">
<path d="M313.767 340.27H979.767V431.27H313.767V340.27Z" fill="#F7F7F7"/>
<path d="M327.795 354.425H341.01C348.142 354.425 353.334 355.854 356.585 358.712C359.836 361.57 361.462 365.345 361.462 370.037C361.462 373.003 360.885 375.618 359.732 377.883C358.63 380.148 357.083 381.792 355.091 382.817C357.608 384.165 359.6 385.972 361.069 388.237C362.537 390.448 363.271 393.737 363.271 398.105C363.271 409.43 354.592 415.092 337.234 415.092H327.795V354.425ZM341.718 379.096C344.76 379.096 347.015 378.584 348.483 377.559C350.004 376.535 350.764 374.432 350.764 371.25C350.764 368.446 349.899 366.531 348.168 365.507C346.49 364.428 344.183 363.889 341.246 363.889H338.965V379.096H341.718ZM341.482 405.628C345.258 405.628 347.985 404.684 349.663 402.797C351.341 400.855 352.18 398.752 352.18 396.487C352.18 392.982 351.262 390.663 349.427 389.531C347.644 388.344 345.127 387.751 341.875 387.751H339.358V405.628H341.482Z" fill="#111111"/>
<path d="M396.921 388.479H392.438V414.606L380.953 415.577V354.91L394.955 354.425C401.72 354.425 407.016 355.827 410.844 358.631C414.672 361.382 416.587 365.615 416.587 371.331C416.587 375.106 415.852 378.206 414.384 380.633C412.968 383.06 410.897 385.082 408.17 386.7L413.44 399.885L418.789 412.989L407.462 416.143L396.921 388.479ZM396.371 379.743C399.098 379.743 401.221 379.177 402.742 378.045C404.315 376.858 405.102 374.647 405.102 371.412C405.102 366.397 402.69 363.889 397.865 363.889H392.438V379.743H396.371Z" fill="#111111"/>
<path d="M430.701 415.092L443.129 355.153L459.57 354.425L472.313 414.606L459.727 415.092L457.603 402.069H443.523L441.005 415.092H430.701ZM445.646 392.362H455.479L450.051 363.323L445.646 392.362Z" fill="#111111"/>
<path d="M516.029 415.577L498.803 377.64V414.606L488.498 415.092V354.91L500.533 354.425L515.793 390.502V355.396L525.547 354.425V414.606L516.029 415.577Z" fill="#111111"/>
<path d="M546.418 354.425H558.532C566.294 354.425 572.088 356.96 575.917 362.029C579.745 367.098 581.659 374.755 581.659 385.001C581.659 390.448 580.925 395.436 579.456 399.966C578.04 404.495 575.759 408.162 572.613 410.966C569.466 413.717 565.455 415.092 560.578 415.092H546.418V354.425ZM559.555 405.628C563.54 405.628 566.294 403.875 567.814 400.37C569.388 396.811 570.174 392.443 570.174 387.266V384.516C570.174 380.795 569.938 377.505 569.466 374.647C569.047 371.735 568.024 369.228 566.398 367.125C564.825 364.968 562.439 363.889 559.24 363.889H557.903V405.628H559.555Z" fill="#111111"/>
<path d="M599.807 415.577V355.396L611.37 354.425V414.606L599.807 415.577Z" fill="#111111"/>
<path d="M659.755 415.577L642.529 377.64V414.606L632.224 415.092V354.91L644.259 354.425L659.519 390.502V355.396L669.273 354.425V414.606L659.755 415.577Z" fill="#111111"/>
<path d="M704.618 416.224C698.797 416.224 694.523 413.231 691.796 407.246C689.122 401.26 687.785 393.683 687.785 384.516C687.785 379.393 688.414 374.459 689.673 369.713C690.984 364.968 693.055 361.058 695.887 357.984C698.771 354.856 702.442 353.293 706.899 353.293C710.728 353.293 713.9 354.263 716.417 356.205C718.987 358.092 720.875 360.627 722.081 363.808C723.34 366.936 723.969 370.414 723.969 374.243L713.035 374.971L712.799 373.272C712.484 370.091 711.934 367.556 711.147 365.669C710.361 363.781 708.892 362.838 706.742 362.838C704.015 362.838 702.075 365.102 700.921 369.632C699.82 374.108 699.269 379.285 699.269 385.163C699.269 389.315 699.4 392.847 699.663 395.759C699.925 398.671 700.607 401.233 701.708 403.444C702.809 405.601 704.513 406.679 706.821 406.679C708.761 406.679 710.282 405.439 711.383 402.958C712.537 400.478 713.114 397.431 713.114 393.818H707.293L708.237 384.758H724.205V414.606L719.8 415.092L717.125 403.848C716.653 405.951 716.05 407.839 715.316 409.51C714.634 411.182 713.428 412.719 711.698 414.121C709.967 415.523 707.607 416.224 704.618 416.224Z" fill="#111111"/>
<path d="M772.493 415.092V355.396L783.978 354.425V405.628H803.328L802.149 415.092H772.493Z" fill="#111111"/>
<path d="M819.198 415.577V355.396L830.762 354.425V414.606L819.198 415.577Z" fill="#111111"/>
<path d="M877.888 416.143L867.662 387.913L863.179 395.921V415.092H851.616V355.396L863.179 354.425V380.957L877.181 354.425H889.452L876.787 379.501L889.609 413.393L877.888 416.143Z" fill="#111111"/>
<path d="M905.772 415.092V354.425H935.742L934.798 363.889H917.335V378.368H929.764L929.685 388.56H917.335V405.628H936.371L935.427 415.092H905.772Z" fill="#111111"/>
</g>
<path d="M67.1172 136.121H71.4022C73.7147 136.121 75.3981 136.571 76.4523 137.473C77.5066 138.374 78.0337 139.564 78.0337 141.043C78.0337 141.979 77.8466 142.803 77.4726 143.517C77.1155 144.232 76.6139 144.75 75.9677 145.073C76.7839 145.498 77.4301 146.068 77.9062 146.782C78.3823 147.479 78.6203 148.517 78.6203 149.894C78.6203 153.465 75.8062 155.25 70.1779 155.25H67.1172V136.121ZM71.6317 143.9C72.6179 143.9 73.3491 143.739 73.8252 143.415C74.3183 143.092 74.5649 142.429 74.5649 141.426C74.5649 140.542 74.2843 139.938 73.7232 139.615C73.1791 139.275 72.4309 139.105 71.4787 139.105H70.739V143.9H71.6317ZM71.5552 152.266C72.7795 152.266 73.6637 151.968 74.2078 151.373C74.7519 150.761 75.024 150.098 75.024 149.384C75.024 148.279 74.7264 147.547 74.1313 147.19C73.5532 146.816 72.737 146.629 71.6827 146.629H70.8665V152.266H71.5552Z" fill="#F7F7F7"/>
<path d="M87.2867 155.25V136.121H97.0045L96.6984 139.105H91.0361V143.67H95.066L95.0405 146.884H91.0361V152.266H97.2085L96.9024 155.25H87.2867Z" fill="#F7F7F7"/>
<path d="M108.518 155.403V147.675L103.927 136.121H108.033L110.66 144.079L113.491 136.121H116.705L112.293 147.241V155.097L108.518 155.403Z" fill="#F7F7F7"/>
<path d="M129.789 155.607C127.63 155.607 126.108 154.681 125.223 152.827C124.356 150.957 123.923 148.542 123.923 145.583C123.923 142.438 124.39 140.015 125.326 138.314C126.261 136.614 127.766 135.764 129.84 135.764C133.802 135.764 135.783 139.003 135.783 145.481C135.783 148.389 135.332 150.804 134.431 152.725C133.547 154.647 132 155.607 129.789 155.607ZM129.84 152.598C130.741 152.598 131.336 152.011 131.625 150.838C131.915 149.647 132.059 147.853 132.059 145.456C132.059 143.534 131.915 141.945 131.625 140.686C131.353 139.411 130.758 138.773 129.84 138.773C128.922 138.773 128.327 139.403 128.055 140.661C127.783 141.919 127.647 143.509 127.647 145.43C127.647 147.845 127.783 149.647 128.055 150.838C128.344 152.011 128.939 152.598 129.84 152.598Z" fill="#F7F7F7"/>
<path d="M153.684 155.403L148.098 143.441V155.097L144.757 155.25V136.274L148.659 136.121L153.607 147.496V136.427L156.77 136.121V155.097L153.684 155.403Z" fill="#F7F7F7"/>
<path d="M166.47 136.121H170.398C172.915 136.121 174.794 136.92 176.035 138.518C177.276 140.117 177.897 142.531 177.897 145.762C177.897 147.479 177.659 149.052 177.183 150.481C176.724 151.909 175.984 153.065 174.964 153.949C173.944 154.817 172.643 155.25 171.061 155.25H166.47V136.121ZM170.73 152.266C172.022 152.266 172.915 151.713 173.408 150.608C173.918 149.486 174.173 148.109 174.173 146.476V145.609C174.173 144.436 174.097 143.398 173.944 142.497C173.808 141.579 173.476 140.788 172.949 140.125C172.439 139.445 171.665 139.105 170.628 139.105H170.194V152.266H170.73Z" fill="#F7F7F7"/>
<path d="M199.063 136.121H203.348C205.661 136.121 207.344 136.571 208.398 137.473C209.453 138.374 209.98 139.564 209.98 141.043C209.98 141.979 209.793 142.803 209.419 143.517C209.061 144.232 208.56 144.75 207.914 145.073C208.73 145.498 209.376 146.068 209.852 146.782C210.328 147.479 210.566 148.517 210.566 149.894C210.566 153.465 207.752 155.25 202.124 155.25H199.063V136.121ZM203.578 143.9C204.564 143.9 205.295 143.739 205.771 143.415C206.264 143.092 206.511 142.429 206.511 141.426C206.511 140.542 206.23 139.938 205.669 139.615C205.125 139.275 204.377 139.105 203.425 139.105H202.685V143.9H203.578ZM203.501 152.266C204.725 152.266 205.61 151.968 206.154 151.373C206.698 150.761 206.97 150.098 206.97 149.384C206.97 148.279 206.672 147.547 206.077 147.19C205.499 146.816 204.683 146.629 203.629 146.629H202.812V152.266H203.501Z" fill="#F7F7F7"/>
<path d="M224.41 146.859H222.957V155.097L219.233 155.403V136.274L223.773 136.121C225.966 136.121 227.684 136.563 228.925 137.447C230.166 138.314 230.787 139.649 230.787 141.451C230.787 142.642 230.549 143.619 230.073 144.385C229.614 145.15 228.942 145.787 228.058 146.298L229.767 150.455L231.501 154.587L227.828 155.582L224.41 146.859ZM224.232 144.104C225.116 144.104 225.805 143.926 226.298 143.568C226.808 143.194 227.063 142.497 227.063 141.477C227.063 139.896 226.281 139.105 224.716 139.105H222.957V144.104H224.232Z" fill="#F7F7F7"/>
<path d="M238.297 155.25L242.326 136.35L247.657 136.121L251.789 155.097L247.708 155.25L247.02 151.144H242.454L241.638 155.25H238.297ZM243.143 148.083H246.331L244.571 138.926L243.143 148.083Z" fill="#F7F7F7"/>
<path d="M268.897 155.403L263.312 143.441V155.097L259.97 155.25V136.274L263.873 136.121L268.821 147.496V136.427L271.984 136.121V155.097L268.897 155.403Z" fill="#F7F7F7"/>
<path d="M281.684 136.121H285.612C288.129 136.121 290.008 136.92 291.249 138.518C292.49 140.117 293.111 142.531 293.111 145.762C293.111 147.479 292.873 149.052 292.397 150.481C291.938 151.909 291.198 153.065 290.178 153.949C289.157 154.817 287.857 155.25 286.275 155.25H281.684V136.121ZM285.944 152.266C287.236 152.266 288.129 151.713 288.622 150.608C289.132 149.486 289.387 148.109 289.387 146.476V145.609C289.387 144.436 289.31 143.398 289.157 142.497C289.021 141.579 288.69 140.788 288.163 140.125C287.653 139.445 286.879 139.105 285.842 139.105H285.408V152.266H285.944Z" fill="#F7F7F7"/>
<path d="M301.928 155.403V136.427L305.678 136.121V155.097L301.928 155.403Z" fill="#F7F7F7"/>
<path d="M324.3 155.403L318.714 143.441V155.097L315.373 155.25V136.274L319.275 136.121L324.223 147.496V136.427L327.386 136.121V155.097L324.3 155.403Z" fill="#F7F7F7"/>
<path d="M341.78 155.607C339.892 155.607 338.506 154.664 337.622 152.776C336.755 150.889 336.321 148.5 336.321 145.609C336.321 143.994 336.526 142.438 336.934 140.941C337.359 139.445 338.03 138.212 338.949 137.243C339.884 136.257 341.074 135.764 342.519 135.764C343.761 135.764 344.789 136.07 345.606 136.682C346.439 137.277 347.051 138.076 347.442 139.079C347.85 140.066 348.054 141.162 348.054 142.37L344.509 142.599L344.432 142.064C344.33 141.06 344.152 140.261 343.897 139.666C343.642 139.071 343.166 138.773 342.468 138.773C341.584 138.773 340.955 139.488 340.581 140.916C340.224 142.327 340.045 143.96 340.045 145.813C340.045 147.122 340.088 148.236 340.173 149.154C340.258 150.072 340.479 150.88 340.836 151.577C341.193 152.257 341.746 152.598 342.494 152.598C343.123 152.598 343.616 152.206 343.973 151.424C344.347 150.642 344.534 149.681 344.534 148.542H342.647L342.953 145.685H348.131V155.097L346.702 155.25L345.835 151.705C345.682 152.368 345.487 152.963 345.249 153.49C345.027 154.017 344.636 154.502 344.075 154.944C343.514 155.386 342.749 155.607 341.78 155.607Z" fill="#F7F7F7"/>
<path d="M65.3315 123.367V74.46H67.8184V123.367H65.3315ZM70.3052 123.367V74.46H77.7656V123.367H70.3052ZM80.2525 123.367V74.46H82.7393V123.367H80.2525ZM90.1997 123.367V74.46H92.6866V123.367H90.1997ZM95.1734 123.367V74.46H102.634V123.367H95.1734Z" fill="#F7F7F7"/>
<path d="M164.882 123.367V74.46H172.343V123.367H164.882ZM179.803 123.367V74.46H182.29V123.367H179.803ZM184.777 123.367V74.46H192.237V123.367H184.777ZM194.724 123.367V74.46H197.211V123.367H194.724ZM199.698 123.367V74.46H202.184V123.367H199.698Z" fill="#F7F7F7"/>
<path d="M264.433 123.367V74.46H266.919V123.367H264.433ZM269.406 123.367V74.46H271.893V123.367H269.406ZM274.38 123.367V74.46H281.84V123.367H274.38ZM284.327 123.367V74.46H286.814V123.367H284.327ZM294.274 123.367V74.46H301.735V123.367H294.274Z" fill="#F7F7F7"/>
<path d="M115.107 123.367V74.46H122.567V123.367H115.107ZM125.054 123.367V74.46H127.541V123.367H125.054ZM130.028 123.367V74.46H137.488V123.367H130.028ZM144.949 123.367V74.46H147.436V123.367H144.949ZM149.922 123.367V74.46H152.409V123.367H149.922Z" fill="#F7F7F7"/>
<path d="M214.658 123.367V74.46H222.118V123.367H214.658ZM224.605 123.367V74.46H227.092V123.367H224.605ZM229.579 123.367V74.46H237.039V123.367H229.579ZM239.526 123.367V74.46H242.013V123.367H239.526ZM249.473 123.367V74.46H251.96V123.367H249.473Z" fill="#F7F7F7"/>
<path d="M314.208 123.367V74.46H316.695V123.367H314.208ZM319.182 123.367V74.46H321.668V123.367H319.182ZM324.155 123.367V74.46H331.616V123.367H324.155ZM339.076 123.367V74.46H341.563V123.367H339.076ZM344.05 123.367V74.46H351.51V123.367H344.05Z" fill="#F7F7F7"/>
<path d="M654.408 325.069C714.843 312.278 780.167 414.455 829.374 348.045C878.58 281.634 628.28 267.002 631.246 228.606C634.212 190.21 689.906 188.857 695.851 159.596C703.654 121.187 647.841 132.369 619.785 111.042C549.429 57.5619 530.428 5.26524 530.428 5.26524M514.994 435.603C423.445 413.863 551.416 261.932 461.383 268.691M355.094 439.056C284.311 489.208 114.289 404.882 118.732 525.201C122.761 634.301 245.681 540.256 317.833 568.961C367.138 588.577 370.645 643.497 426.023 624.327C458.479 613.092 471.465 567.283 508.039 539.044C562.863 496.713 626.585 593.765 695.851 593.765M881 446C1021 545.001 1089 508.5 1089 508.5C1111.17 503.985 1155.3 480.265 1154.5 421.5C1153.7 362.736 1030 398.5 1055.5 478.5C1058.55 488.072 1067.8 518.566 1089 542.5" stroke="#2052B6" stroke-width="10" stroke-linecap="round"/>
<defs>
<clipPath id="clip0_459_68">
<rect width="137" height="86" fill="white" transform="translate(667.928 341.717)"/>
</clipPath>
</defs>
</svg>
