<svg width="880" height="1695" viewBox="0 0 880 1695" fill="none" xmlns="http://www.w3.org/2000/svg">
<path d="M0.117835 1687.91C26.3643 1667.76 56.4208 1657.71 65.351 1622.52C76.1762 1579.8 59.6864 1524.99 84.038 1487.55C120.082 1432.1 225.934 1420.48 226.035 1343.07C226.096 1292.56 189.85 1245.91 200.494 1194.75C214.847 1125.79 298.505 1101.91 332.372 1046.1C358.739 1002.68 343.499 952.022 346.241 904.628C350.172 836.517 418.146 807.244 447.598 753.266C455.48 738.851 454.17 726.771 454.956 710.382C458.161 642.976 452.658 573.798 451.448 506.231C448.606 346.453 445.34 186.696 443.083 26.9181H446.348C448.525 186.696 451.751 346.473 454.533 506.231C455.722 573.798 461.205 642.976 457.96 710.382C457.173 726.811 458.443 738.871 450.561 753.327C421.11 807.304 353.175 836.578 349.285 904.648C346.563 952.042 361.803 1002.72 335.456 1046.14C301.63 1101.93 218.012 1125.87 203.659 1194.77C192.995 1245.93 229.361 1292.56 229.24 1343.09C229.059 1420.42 123.408 1432.22 87.3238 1487.59C62.932 1525.01 79.462 1579.8 68.6368 1622.52C59.7066 1657.73 29.7509 1667.82 3.42384 1687.91C2.07322 1687.91 1.40796 1687.91 0.0976562 1687.91H0.117835ZM6.87094 1687.91C33.2585 1667.86 63.1335 1657.75 72.0436 1622.52C82.8486 1579.8 66.2985 1525.04 90.7105 1487.63C126.794 1432.34 232.244 1420.34 232.506 1343.09C232.687 1292.56 196.2 1245.95 206.864 1194.77C221.217 1125.93 304.754 1101.91 338.54 1046.14C364.847 1002.74 349.627 952.002 352.329 904.628C356.199 836.578 424.073 807.324 453.504 753.347C461.407 738.871 460.137 726.811 460.943 710.362C464.229 642.956 458.746 573.778 457.597 506.211C454.855 346.433 451.65 186.676 449.574 26.8979H459.088C460.943 186.676 464.047 346.433 466.628 506.211C467.716 573.778 473.159 642.976 469.752 710.362C468.926 726.851 470.115 738.931 462.213 753.468C432.902 807.425 365.23 836.699 361.46 904.628C358.82 951.982 374.039 1002.8 347.853 1046.21C314.229 1101.91 230.934 1126.15 216.641 1194.83C205.977 1246.03 242.767 1292.58 242.464 1343.13C242.021 1420.1 137.317 1432.62 101.253 1487.73C76.7608 1525.14 93.4924 1579.78 82.7478 1622.5C73.8781 1657.77 44.2853 1668 17.7364 1687.87C13.2411 1687.87 11.0639 1687.87 6.89112 1687.87L6.87094 1687.91ZM21.5061 1687.91C48.1154 1668.08 77.5872 1657.83 86.4369 1622.54C97.1612 1579.82 80.3691 1525.22 104.862 1487.81C140.905 1432.76 245.327 1420.06 245.831 1343.19C246.153 1292.62 209.283 1246.11 219.927 1194.89C234.199 1126.28 317.394 1101.95 350.938 1046.27C377.083 1002.86 361.864 952.022 364.484 904.668C368.234 836.759 435.805 807.505 465.076 753.528C472.978 738.951 471.788 726.871 472.635 710.362C476.062 642.976 470.659 573.758 469.571 506.211C467.031 346.433 463.967 186.676 462.173 26.8979H465.257C466.97 186.676 470.014 346.433 472.494 506.211C473.542 573.758 478.945 642.976 475.477 710.362C474.631 726.871 475.78 738.972 467.898 753.568C438.688 807.525 371.217 836.799 367.508 904.668C364.928 952.002 380.127 1002.88 354.042 1046.29C320.559 1101.97 237.485 1126.4 223.253 1194.93C212.609 1246.15 249.6 1292.64 249.238 1343.21C248.693 1419.98 144.574 1432.84 108.571 1487.85C84.0783 1525.24 100.931 1579.82 90.2468 1622.52C81.4174 1657.81 52.0463 1668.1 25.3967 1687.87C23.8243 1687.87 23.0381 1687.87 21.5061 1687.87V1687.91ZM37.5926 1687.87C64.3431 1668.26 93.3714 1657.89 102.08 1622.58C112.623 1579.88 95.5485 1525.46 119.981 1488.05C155.843 1433.17 258.954 1419.84 259.599 1343.35C260.022 1292.76 222.769 1246.37 233.353 1195.11C247.443 1126.74 330.134 1102.03 363.335 1046.37C389.239 1002.94 374.039 952.002 376.559 904.689C380.147 836.96 447.296 807.686 476.284 753.709C484.146 739.052 483.037 726.912 483.904 710.362C487.431 642.976 482.11 573.758 481.122 506.211C478.783 346.453 475.84 186.676 474.328 26.8979H477.292C478.763 186.676 481.646 346.433 483.944 506.211C484.912 573.758 490.213 642.996 486.665 710.362C485.799 726.912 486.887 739.072 479.025 753.749C450.118 807.747 383.111 837.021 379.563 904.709C377.083 952.022 392.263 1002.98 366.44 1046.41C333.339 1102.08 250.81 1126.88 236.759 1195.19C226.216 1246.45 263.55 1292.8 263.107 1343.41C262.441 1419.8 159.713 1433.27 123.912 1488.13C99.4997 1525.54 116.655 1579.92 106.172 1622.6C97.5039 1657.91 68.5764 1668.3 41.8058 1687.85C40.0923 1687.85 39.2456 1687.85 37.5725 1687.85L37.5926 1687.87ZM46.16 1687.85C72.9508 1668.34 101.737 1657.95 110.365 1622.62C120.787 1579.94 103.552 1525.62 127.923 1488.21C163.644 1433.39 266.01 1419.76 266.675 1343.47C267.118 1292.86 229.704 1246.57 240.207 1195.29C254.197 1127.04 336.544 1102.14 369.564 1046.47C395.327 1003.02 380.147 952.042 382.587 904.749C386.094 837.121 452.98 807.827 481.787 753.83C489.629 739.153 488.56 726.952 489.427 710.402C492.995 643.037 487.734 573.798 486.766 506.251C484.508 346.494 481.646 186.716 480.235 26.9382H488.883C490.133 186.716 492.874 346.473 495.011 506.251C495.898 573.818 501.099 643.016 497.47 710.402C496.583 726.952 497.591 739.233 489.83 753.971C461.326 808.009 394.883 837.323 391.537 904.789C389.178 952.062 404.338 1003.08 378.837 1046.59C346.2 1102.26 264.377 1127.52 250.608 1195.57C240.227 1246.89 277.863 1293.04 277.419 1343.67C276.734 1419.64 175.618 1433.71 140.18 1488.45C115.969 1525.9 133.487 1580.02 123.287 1622.68C114.82 1658 86.4369 1668.42 59.6058 1687.79C54.0823 1687.81 51.4013 1687.81 46.16 1687.83V1687.85Z" fill="#F7F7F7"/>
<path d="M64.3027 1687.77C91.1338 1668.44 119.396 1658.02 127.782 1622.7C137.922 1580.06 120.283 1526 144.433 1488.53C179.751 1433.79 280.423 1419.58 281.088 1343.73C281.532 1293.08 243.815 1246.99 254.156 1195.65C267.844 1127.66 349.466 1102.28 381.982 1046.59C407.382 1003.06 392.243 952.042 394.561 904.769C397.867 837.363 464.128 808.029 492.511 753.971C500.252 739.213 499.264 726.892 500.151 710.362C503.78 642.976 498.619 573.778 497.753 506.211C495.676 346.453 492.955 186.676 491.765 26.9181H500.111C501.159 186.696 503.78 346.453 505.715 506.211C506.542 573.778 511.602 642.976 507.953 710.362C507.046 726.892 508.013 739.314 500.353 754.112C472.353 808.21 406.595 837.584 403.471 904.809C401.274 952.062 416.372 1003.12 391.275 1046.71C359.203 1102.44 278.226 1128.19 264.8 1196C254.64 1247.38 292.558 1293.3 292.135 1343.96C291.51 1419.48 192.249 1434.09 157.335 1488.82C133.406 1526.32 151.388 1580.16 141.51 1622.78C133.326 1658.08 105.507 1668.52 78.6758 1687.71C72.7895 1687.73 69.9068 1687.75 64.3027 1687.77ZM83.6147 1687.69C111.05 1668.26 138.668 1657.53 146.469 1621.41C155.198 1581.01 138.627 1529.81 158.161 1492.98C189.891 1433.13 292.941 1423.82 296.207 1346.25C298.404 1294.09 258.43 1248.69 269.074 1195.82C282.761 1127.83 363.134 1101.51 395.045 1044.76C420.041 1000.34 402.644 949.364 406.616 901.588C411.958 837.262 472.837 807.082 502.087 755.441C510.029 741.408 509.445 729.771 510.493 713.906C514.867 648.251 509.182 580.019 508.396 514.103C506.461 351.708 503.84 189.313 502.812 26.8979H505.534C506.522 189.293 509.102 351.708 510.997 514.103C511.763 580.019 517.407 648.251 513.033 713.906C511.984 729.771 512.569 741.448 504.647 755.501C475.558 807.183 414.86 837.323 409.579 901.608C405.648 949.384 423.025 1000.34 398.149 1044.8C366.379 1101.55 286.269 1128.03 272.682 1195.94C262.099 1248.83 302.134 1294.19 299.957 1346.33C296.731 1423.76 194.205 1433.27 162.636 1493.08C143.183 1529.95 159.875 1581.05 151.227 1621.45C143.506 1657.55 116.03 1668.28 88.614 1687.67C86.5981 1687.67 85.5902 1687.67 83.5945 1687.69H83.6147ZM93.7141 1687.65C121.11 1668.3 148.425 1657.57 156.065 1621.49C164.612 1581.11 147.8 1530.07 167.172 1493.2C198.559 1433.43 300.581 1423.74 303.746 1346.45C305.883 1294.29 265.808 1249.01 276.331 1196.1C289.817 1128.25 369.685 1101.63 401.274 1044.86C426.028 1000.38 408.692 949.425 412.562 901.648C417.783 837.403 478.32 807.304 507.227 755.581C515.089 741.508 514.525 729.791 515.573 713.926C519.947 648.251 514.343 580.06 513.577 514.123C511.722 351.728 509.182 189.333 508.235 26.9181H510.896C511.803 189.313 514.323 351.728 516.117 514.123C516.843 580.06 522.427 648.251 518.052 713.926C517.004 729.771 517.548 741.549 509.727 755.622C481.001 807.404 420.626 837.443 415.465 901.668C411.635 949.445 428.951 1000.38 404.318 1044.9C372.89 1101.71 293.284 1128.45 279.919 1196.24C269.477 1249.15 309.613 1294.39 307.496 1346.55C304.391 1423.7 202.873 1433.59 171.688 1493.32C152.416 1530.21 169.349 1581.17 160.903 1621.55C153.363 1657.61 126.21 1668.34 98.8344 1687.65C96.7581 1687.65 95.73 1687.65 93.694 1687.67L93.7141 1687.65ZM104.076 1687.61C131.431 1668.36 158.423 1657.61 165.882 1621.57C174.227 1581.21 157.173 1530.33 176.344 1493.43C207.348 1433.73 308.322 1423.64 311.366 1346.63C313.443 1294.47 273.246 1249.29 283.628 1196.36C296.892 1128.63 376.237 1101.75 407.482 1044.92C431.975 1000.36 414.679 949.425 418.469 901.668C423.549 837.504 483.742 807.505 512.287 755.662C520.048 741.549 519.524 729.73 520.572 713.906C524.947 648.231 519.403 580.039 518.677 514.103C516.903 351.708 514.424 189.313 513.557 26.9181H521.378C522.144 189.313 524.503 351.708 526.156 514.103C526.821 580.06 532.224 648.191 527.89 713.906C526.841 729.71 527.325 741.669 519.705 755.823C491.745 807.827 432.116 837.705 427.238 901.709C423.609 949.465 440.825 1000.36 416.735 1045.04C386.054 1101.93 307.556 1129.3 294.655 1196.82C284.535 1249.79 324.832 1294.77 322.897 1346.96C320.055 1423.5 220.774 1434.21 190.395 1493.79C171.546 1530.77 189.024 1581.37 180.981 1621.71C173.824 1657.67 147.336 1668.42 120.082 1687.53C113.55 1687.57 110.345 1687.57 104.055 1687.61H104.076ZM136.692 1687.45C163.846 1668.44 189.79 1657.73 196.624 1621.86C204.304 1581.53 186.403 1531.26 204.889 1494.17C234.542 1434.7 332.069 1423.34 334.649 1347.3C336.423 1295.09 296.005 1250.32 305.863 1197.33C318.382 1130 395.972 1102.16 426.028 1045.18C449.654 1000.38 432.54 949.545 436.007 901.789C440.643 837.947 499.688 808.17 527.003 756.004C534.441 741.79 534.018 729.67 535.046 713.906C539.34 648.17 534.078 580.1 533.453 514.123C531.901 351.728 529.664 189.333 528.978 26.9382H531.478C532.123 189.333 534.34 351.728 535.852 514.123C536.457 580.12 541.678 648.17 537.404 713.906C536.376 729.65 536.8 741.83 529.422 756.065C502.308 808.27 443.486 838.027 438.93 901.809C435.523 949.566 452.597 1000.38 429.133 1045.22C399.278 1102.24 322.01 1130.24 309.612 1197.49C299.856 1250.5 340.314 1295.19 338.601 1347.4C336.101 1423.28 239.199 1434.84 209.787 1494.29C191.423 1531.4 209.485 1581.57 201.925 1621.9C195.213 1657.75 169.43 1668.46 142.316 1687.41C140.039 1687.41 138.91 1687.41 136.672 1687.43L136.692 1687.45Z" fill="#F7F7F7"/>
<path d="M148.143 1687.37C175.195 1668.44 200.797 1657.75 207.389 1621.94C214.827 1581.63 196.604 1531.58 214.827 1494.43C243.976 1435.02 340.234 1423.24 342.653 1347.52C344.306 1295.31 303.827 1250.68 313.483 1197.67C325.72 1130.48 402.685 1102.3 432.298 1045.26C455.621 1000.36 438.567 949.586 441.914 901.81C446.429 837.504 506.139 809.217 531.881 756.085C538.917 741.549 538.776 729.871 539.824 713.886C544.077 648.13 538.917 580.1 538.312 514.103C536.84 351.708 534.683 189.313 534.058 26.9182H541.416C541.981 189.313 544.017 351.708 545.388 514.103C545.952 580.12 550.951 648.09 546.779 713.886C545.771 729.811 545.892 741.71 539.017 756.266C513.88 809.438 454.916 837.846 450.662 901.89C447.477 949.646 464.431 1000.36 441.611 1045.4C412.663 1102.54 336.706 1131.27 324.893 1198.23C315.539 1251.28 356.139 1295.7 354.667 1347.9C352.551 1423.08 258.208 1435.54 229.886 1494.86C212.106 1532.1 230.793 1581.83 223.737 1622.1C217.488 1657.79 192.471 1668.48 165.58 1687.27C158.524 1687.31 155.037 1687.33 148.163 1687.37H148.143ZM171.486 1687.25C198.317 1668.48 223.153 1657.81 229.281 1622.16C236.195 1581.89 217.347 1532.28 234.966 1495C262.986 1435.72 356.683 1423.02 358.699 1348.02C360.09 1295.82 319.47 1251.48 328.723 1198.41C340.375 1131.51 415.99 1102.6 444.695 1045.44C467.354 1000.34 450.441 949.666 453.545 901.89C457.718 837.947 516.42 809.498 541.336 756.306C548.149 741.75 548.028 729.771 549.036 713.865C553.209 648.05 548.23 580.12 547.686 514.083C546.355 351.688 544.339 189.293 543.815 26.9182H546.214C546.738 189.313 548.694 351.708 550.004 514.083C550.528 580.12 555.447 648.05 551.314 713.865C550.306 729.73 550.427 741.81 543.674 756.347C518.96 809.559 460.52 838.047 456.448 901.91C453.404 949.666 470.257 1000.34 447.8 1045.48C419.316 1102.68 344.044 1131.79 332.553 1198.61C323.421 1251.69 364.081 1295.94 362.751 1348.16C360.856 1422.96 267.824 1435.9 240.086 1495.14C222.608 1532.46 241.618 1581.95 234.845 1622.2C228.858 1657.81 204.204 1668.46 177.433 1687.19C175.034 1687.19 173.845 1687.21 171.466 1687.23L171.486 1687.25ZM183.46 1687.19C210.171 1668.5 234.623 1657.85 240.469 1622.28C247.101 1582.03 227.93 1532.69 245.246 1495.3C272.682 1436.09 365.029 1422.9 366.823 1348.31C368.073 1296.08 327.413 1251.91 336.424 1198.82C347.753 1132.07 422.662 1102.76 450.904 1045.54C473.2 1000.34 456.367 949.707 459.351 901.95C463.342 838.188 521.52 809.66 546.012 756.427C552.705 741.871 552.604 729.71 553.592 713.886C557.704 648.05 552.846 580.16 552.322 514.103C551.052 351.708 549.137 189.333 548.633 26.9383H551.012C551.496 189.333 553.37 351.728 554.62 514.103C555.124 580.16 559.922 648.05 555.85 713.886C554.862 729.69 554.983 741.931 548.351 756.488C524.08 809.72 466.164 838.309 462.274 901.971C459.351 949.747 476.143 1000.34 454.029 1045.6C426.049 1102.86 351.482 1132.38 340.314 1199.04C331.424 1252.15 372.104 1296.24 370.935 1348.45C369.262 1422.84 277.581 1436.29 250.468 1495.46C233.313 1532.89 252.665 1582.11 246.174 1622.34C240.449 1657.85 216.198 1668.5 189.548 1687.15C187.109 1687.15 185.9 1687.17 183.501 1687.19H183.46ZM207.933 1687.05C234.361 1668.5 258.007 1657.91 263.329 1622.54C269.396 1582.33 249.52 1533.51 266.151 1495.94C292.297 1436.89 381.881 1422.68 383.192 1348.89C384.119 1296.66 343.358 1252.81 351.906 1199.68C362.59 1133.24 436.027 1103.12 463.261 1045.76C484.811 1000.34 468.16 949.848 470.881 902.051C474.49 838.672 531.559 809.921 555.164 756.649C561.615 742.092 561.514 729.61 562.462 713.886C566.453 647.989 561.817 580.201 561.353 514.103C560.204 351.708 558.45 189.333 558.007 26.9383H560.325C560.748 189.333 562.462 351.708 563.591 514.103C564.034 580.201 568.61 647.989 564.659 713.886C563.712 729.589 563.812 742.153 557.442 756.709C534.079 809.982 477.292 838.812 473.764 902.071C471.103 949.847 487.714 1000.34 466.346 1045.8C439.374 1103.2 366.299 1133.52 355.796 1199.88C347.39 1253.03 388.151 1296.78 387.304 1349.03C386.115 1422.6 297.235 1437.07 271.432 1496.1C254.983 1533.71 275.021 1582.39 269.114 1622.62C263.913 1657.93 240.489 1668.52 214.142 1687.03C211.642 1687.03 210.392 1687.05 207.913 1687.07L207.933 1687.05ZM220.431 1686.97C246.718 1668.48 269.941 1657.91 274.98 1622.66C280.746 1582.46 260.527 1533.91 276.795 1496.24C302.255 1437.27 390.429 1422.52 391.497 1349.17C392.263 1296.95 351.462 1253.26 359.747 1200.1C370.089 1133.83 442.76 1103.28 469.491 1045.84C490.657 1000.32 474.087 949.868 476.687 902.091C480.114 838.933 536.619 810.042 559.74 756.749C566.07 742.193 565.949 729.529 566.897 713.865C570.828 647.949 566.312 580.201 565.869 514.083C564.78 351.688 563.107 189.313 562.684 26.9182H569.517C569.9 189.313 571.453 351.688 572.44 514.063C572.844 580.201 577.178 647.889 573.368 713.845C572.461 729.428 572.581 742.334 566.453 756.89C544.057 810.203 488.44 839.296 485.315 902.132C482.936 949.928 499.366 1000.26 478.784 1045.96C452.88 1103.5 381.357 1134.69 371.56 1200.73C363.658 1253.92 404.499 1297.35 404.015 1349.57C403.33 1422.25 317.354 1437.84 292.962 1496.69C277.278 1534.52 298.022 1582.62 292.72 1622.8C288.104 1657.89 265.506 1668.42 239.481 1686.81C231.821 1686.85 228.011 1686.89 220.472 1686.93L220.431 1686.97Z" fill="#F7F7F7"/>
<path d="M245.953 1686.79C271.897 1668.44 294.273 1657.91 298.748 1622.9C303.889 1582.72 282.964 1534.78 298.446 1496.89C322.475 1438.08 407.706 1422.19 408.25 1349.75C408.653 1297.51 367.792 1254.18 375.553 1200.97C385.168 1135.01 456.288 1103.59 481.909 1046.02C502.29 1000.26 485.901 949.968 488.219 902.152C491.243 839.437 546.558 810.243 568.712 756.931C574.76 742.354 574.659 729.368 575.546 713.825C579.316 647.848 575.042 580.201 574.659 514.043C573.691 351.668 572.179 189.273 571.817 26.8981H574.054C574.417 189.273 575.889 351.668 576.836 514.043C577.219 580.201 581.432 647.828 577.703 713.825C576.816 729.348 576.937 742.435 570.95 756.991C549.058 810.304 494.045 839.578 491.122 902.172C488.884 949.989 505.213 1000.24 485.034 1046.06C459.674 1103.67 388.978 1135.32 379.524 1201.19C371.904 1254.4 412.765 1297.65 412.463 1349.9C412.04 1422.09 327.575 1438.28 303.909 1497.05C288.629 1535 309.735 1582.78 304.756 1622.96C300.422 1657.91 278.267 1668.42 252.404 1686.75C249.824 1686.75 248.533 1686.77 245.953 1686.79ZM258.875 1686.71C285.383 1668.06 307.013 1657.75 310.884 1621.59C315.218 1581.11 293.689 1530.87 311.388 1493.18C338.783 1434.86 420.95 1418.51 416.212 1343.21C413.128 1294.25 376.057 1252.37 382.85 1201.94C391.357 1138.8 457.437 1105.78 484.812 1052.63C508.539 1006.54 492.775 954.861 493.944 905.715C495.476 842.215 548.795 812.196 572.462 758.541C580.767 739.717 579.779 722.523 579.82 701.665C579.94 641.809 579.316 581.932 578.993 522.076C578.086 357.023 576.634 191.951 576.251 26.8779H578.469C578.832 191.951 580.243 357.003 581.13 522.056C581.452 581.912 582.037 641.768 581.916 701.624C581.876 722.422 582.843 739.737 574.659 758.581C551.275 812.277 498.238 842.296 496.786 905.715C495.678 954.861 511.401 1006.52 487.917 1052.67C460.823 1105.88 395.147 1139.08 386.801 1202.16C380.129 1252.59 417.241 1294.39 420.385 1343.35C425.223 1418.41 343.823 1435.02 316.811 1493.35C299.333 1531.1 321.064 1581.19 316.891 1621.65C313.162 1657.73 291.753 1668.04 265.346 1686.64C262.745 1686.64 261.435 1686.67 258.834 1686.69L258.875 1686.71ZM271.897 1686.62C298.224 1668.04 319.411 1657.75 322.979 1621.76C326.991 1581.31 305.058 1531.38 322.314 1493.57C348.943 1435.24 429.578 1418.37 424.639 1343.55C421.393 1294.59 384.281 1252.89 390.813 1202.44C398.977 1139.44 464.25 1106.06 491.081 1052.79C514.344 1006.56 498.661 954.941 499.709 905.796C501.06 842.477 553.835 812.438 576.917 758.702C585 739.858 584.053 722.422 584.093 701.685C584.214 641.829 583.629 581.952 583.327 522.116C582.48 357.064 581.11 191.991 580.747 26.9383H587.359C587.722 191.991 588.951 357.064 589.717 522.116C590 581.972 590.524 641.829 590.403 701.685C590.362 722.261 591.29 740.039 583.509 758.904C561.354 812.74 509.406 842.859 508.337 905.877C507.511 955.022 523.073 1006.56 500.516 1053.01C474.551 1106.5 410.487 1140.41 402.867 1203.22C396.739 1253.74 433.912 1295.13 437.399 1344.1C442.661 1418.17 364.344 1435.8 338.884 1494.13C322.294 1532.14 344.851 1581.59 341.323 1622C338.219 1657.77 317.697 1668.04 291.673 1686.52C283.73 1686.58 279.779 1686.6 271.917 1686.64L271.897 1686.62ZM298.265 1686.46C324.189 1668.02 344.488 1657.75 347.431 1622.06C350.778 1581.65 328.019 1532.38 344.387 1494.29C369.424 1435.97 446.974 1418.05 441.612 1344.24C438.044 1295.27 400.852 1253.98 406.839 1203.45C414.277 1140.71 477.938 1106.61 503.62 1053.05C525.936 1006.54 510.414 955.022 511.18 905.877C512.167 842.96 563.834 812.821 585.686 758.944C593.346 740.059 592.419 722.16 592.479 701.665C592.62 641.809 592.096 581.952 591.834 522.096C591.088 357.043 589.899 191.971 589.556 26.9182H591.733C592.076 191.971 593.245 357.043 593.951 522.096C594.213 581.952 594.717 641.809 594.576 701.665C594.535 722.12 595.442 740.119 587.883 759.024C566.354 812.941 514.969 843.101 514.082 905.917C513.397 955.062 528.859 1006.54 506.805 1053.13C481.405 1106.75 418.168 1141.03 410.911 1203.71C405.065 1254.24 442.278 1295.44 445.926 1344.42C451.409 1417.97 374.645 1436.17 350.012 1494.47C333.885 1532.63 356.845 1581.73 353.681 1622.12C350.879 1657.75 330.801 1668 304.998 1686.42C302.337 1686.42 301.006 1686.44 298.345 1686.46H298.265ZM324.975 1686.28C350.838 1668.85 369.908 1656.99 372.186 1622.34C374.847 1581.97 351.282 1533.41 366.683 1495.02C390.047 1436.73 464.472 1417.64 458.666 1344.92C454.756 1295.94 417.482 1255.05 422.905 1204.47C429.618 1142 491.585 1107.15 516.118 1053.33C537.446 1006.52 522.106 955.143 522.589 905.997C523.194 843.504 573.732 813.203 594.314 759.226C601.53 740.3 600.643 721.959 600.704 701.665C600.865 641.809 600.401 581.952 600.16 522.096C599.535 357.043 598.507 191.991 598.164 26.9182H604.615C604.957 191.971 605.844 357.023 606.409 522.076C606.61 581.932 607.034 641.788 606.852 701.645C606.792 721.798 607.658 740.441 600.784 759.407C581.17 813.445 531.499 843.926 531.157 906.078C530.895 955.223 546.094 1006.52 525.512 1053.55C501.866 1107.57 441.189 1143.03 435.02 1205.28C430.001 1255.89 467.335 1296.5 471.507 1345.47C477.656 1417.34 405.589 1437.37 383.515 1495.6C368.88 1534.22 393.03 1582.23 390.893 1622.58C389.079 1656.93 370.715 1668.83 345.174 1686.16C337.07 1686.22 333.018 1686.24 324.955 1686.3L324.975 1686.28Z" fill="#F7F7F7"/>
<path d="M352.067 1686.1C377.507 1668.81 395.63 1656.89 397.283 1622.64C399.238 1582.29 374.887 1534.48 389.26 1495.76C410.87 1437.58 482.15 1417.2 475.881 1345.63C471.607 1296.64 434.274 1256.16 439.132 1205.52C445.099 1143.33 505.353 1107.67 528.697 1053.59C549.016 1006.5 533.877 955.223 534.059 906.078C534.301 844.047 583.689 813.505 602.961 759.447C609.714 740.482 608.867 721.717 608.928 701.624C609.089 641.768 608.686 581.912 608.504 522.056C607.98 357.003 607.134 191.951 606.791 26.8979H608.928C609.27 191.951 610.077 357.003 610.581 522.056C610.762 581.912 611.145 641.768 610.984 701.624C610.923 721.536 611.831 740.623 605.118 759.508C585.947 813.465 537.062 844.248 536.921 906.098C536.8 955.243 551.899 1006.48 531.841 1053.65C508.8 1107.79 448.969 1143.65 443.184 1205.78C438.467 1256.44 475.8 1296.82 480.175 1345.81C486.525 1417.1 416.05 1437.8 394.884 1495.96C380.773 1534.76 405.306 1582.37 403.532 1622.72C402.02 1656.87 384.159 1668.79 358.82 1686.06C356.119 1686.06 354.748 1686.08 352.047 1686.1H352.067ZM365.614 1686.02C390.832 1668.79 408.471 1656.85 409.821 1622.8C411.434 1582.46 386.679 1535.04 400.548 1496.14C421.271 1438.02 490.96 1416.98 484.489 1345.99C480.034 1297.01 442.66 1256.72 447.236 1206.06C452.84 1144.01 512.227 1107.95 534.966 1053.76C554.782 1006.52 539.723 955.304 539.764 906.158C539.824 844.45 588.386 813.565 607.255 759.608C613.867 740.723 612.959 721.496 613.02 701.645C613.201 641.788 612.818 581.932 612.657 522.076C612.193 357.023 611.427 191.971 611.085 26.9181H613.221C613.564 191.971 614.29 357.023 614.733 522.076C614.895 581.932 615.257 641.788 615.076 701.645C615.016 721.436 615.923 740.784 609.411 759.669C590.825 813.626 542.586 844.611 542.626 906.178C542.646 955.324 557.664 1006.52 538.09 1053.82C515.654 1108.07 456.69 1144.36 451.267 1206.33C446.833 1257 484.207 1297.21 488.762 1346.17C495.334 1416.86 426.432 1438.24 406.173 1496.35C392.586 1535.3 417.522 1582.54 416.091 1622.88C414.881 1656.81 397.484 1668.77 372.387 1685.98C369.665 1685.98 368.315 1686 365.593 1686.02H365.614ZM379.2 1685.94C404.197 1668.79 421.352 1656.79 422.4 1622.98C423.65 1582.64 398.533 1535.61 411.857 1496.57C431.653 1438.52 499.769 1416.76 493.096 1346.39C488.46 1297.41 451.066 1257.32 455.36 1206.63C460.601 1144.72 519.121 1108.26 541.255 1053.92C560.567 1006.54 545.61 955.384 545.509 906.219C545.388 844.772 593.305 813.686 611.568 759.749C617.959 740.864 617.052 721.375 617.112 701.665C617.293 641.808 616.951 581.952 616.789 522.096C616.386 357.043 615.701 191.991 615.358 26.9382H621.749C622.111 191.991 622.656 357.043 622.978 522.096C623.099 581.952 623.401 641.808 623.22 701.665C623.16 721.214 624.067 741.086 617.979 759.95C600.602 813.867 553.653 845.275 554.056 906.319C554.379 955.485 569.195 1006.56 550.649 1054.14C529.402 1108.64 472.192 1145.74 467.515 1207.43C463.665 1258.15 501.099 1297.95 506.018 1346.94C512.993 1416.38 447.256 1439.25 428.831 1497.15C416.333 1536.47 442.015 1582.86 441.289 1623.22C440.684 1656.71 424.255 1668.77 399.621 1685.82C391.457 1685.88 387.365 1685.9 379.221 1685.96L379.2 1685.94ZM420.022 1685.68C497.592 1631.5 424.497 1570.13 445.804 1497.71C462.798 1439.99 526.197 1415.93 518.92 1347.48C513.719 1298.52 476.244 1258.99 479.671 1208.24C483.824 1146.77 539.703 1109.02 560.043 1054.36C577.823 1006.56 563.147 955.606 562.603 906.4C561.938 845.759 607.9 814.008 624.389 760.152C630.175 741.267 629.248 721.073 629.308 701.665C629.489 641.808 629.247 581.952 629.147 522.096C628.885 357.043 628.481 191.991 628.119 26.9382H630.255C630.618 191.991 630.981 357.043 631.223 522.096C631.304 581.952 631.546 641.808 631.344 701.665C631.283 721.033 632.211 741.327 626.526 760.232C610.339 814.069 564.7 845.96 565.446 906.44C566.07 955.646 580.685 1006.58 563.168 1054.44C543.13 1109.16 487.674 1147.11 483.723 1208.52C480.437 1259.28 517.932 1298.7 523.233 1347.66C530.591 1415.79 467.979 1440.25 451.469 1497.92C430.806 1570.07 503.922 1631.64 426.815 1685.66C424.094 1685.66 422.743 1685.68 420.022 1685.7V1685.68ZM433.608 1685.6C510.231 1631.76 437.096 1569.99 457.113 1498.1C473.139 1440.52 534.986 1415.63 527.527 1347.84C522.145 1298.88 484.65 1259.54 487.775 1208.78C491.564 1147.46 546.577 1109.28 566.312 1054.5C583.568 1006.58 569.014 955.666 568.328 906.46C567.482 846.101 612.798 814.089 628.683 760.273C634.267 741.367 633.32 720.972 633.38 701.645C633.582 641.788 633.36 581.932 633.279 522.076C633.078 357.023 632.755 191.971 632.392 26.9181H638.803C639.166 191.971 639.367 357.023 639.488 522.056C639.528 581.912 639.71 641.768 639.508 701.624C639.448 720.832 640.395 741.529 635.114 760.454C620.116 814.189 575.767 846.584 576.876 906.521C577.783 955.747 592.196 1006.58 575.706 1054.68C556.878 1109.6 503.176 1148.44 499.93 1209.55C497.229 1260.34 534.764 1299.4 540.429 1348.35C548.149 1415.13 488.641 1441.32 474.047 1498.64C456.851 1566.17 530.894 1637.18 453.948 1685.44C445.825 1685.5 441.753 1685.52 433.608 1685.58V1685.6Z" fill="#F7F7F7"/>
<path d="M460.822 1685.4C537.283 1637.36 463.22 1566.01 479.771 1498.84C493.882 1441.6 552.583 1414.97 544.782 1348.53C539.017 1299.58 501.461 1260.6 504.021 1209.81C507.106 1148.76 560.344 1109.73 578.89 1054.74C595.138 1006.56 580.765 955.767 579.777 906.521C578.588 846.725 622.594 814.189 637.29 760.494C642.471 741.569 641.503 720.771 641.563 701.604C641.765 641.748 641.604 581.892 641.563 522.036C641.463 356.983 641.321 191.93 640.959 26.8979H647.409C647.772 194.669 647.813 362.439 647.813 530.21C647.813 601.804 662.71 692.041 643.337 762.588C629.448 813.183 587.216 846.705 588.083 903.118C588.849 952.344 604.351 1004.29 589.353 1052.85C572.036 1108.94 519.523 1148.36 516.479 1209.79C513.899 1261.81 552.422 1301.17 557.542 1351.51C564.215 1416.96 505.332 1445.53 496.301 1503.47C486.121 1568.8 553.43 1638.83 481 1685.24C472.937 1685.3 468.905 1685.32 460.781 1685.38L460.822 1685.4ZM487.733 1685.22C559.699 1639.03 492.329 1568.58 501.965 1503.67C510.533 1445.89 568.609 1416.8 561.856 1351.69C556.635 1301.35 518.112 1262.07 520.531 1210.05C523.414 1148.7 575.484 1109.02 592.497 1052.93C607.253 1004.31 591.792 952.404 590.945 903.158C589.998 846.886 631.907 813.243 645.514 762.689C664.564 691.92 649.889 602.025 649.889 530.25C649.909 362.479 649.929 194.709 649.566 26.9382H656.078C656.44 194.709 656.299 362.479 656.178 530.25C656.138 602.589 670.148 691.477 652.046 762.93C639.265 813.384 598.303 847.409 599.513 903.279C600.581 952.565 615.881 1004.39 601.831 1053.17C585.643 1109.34 534.925 1149.75 532.546 1210.86C530.53 1262.9 569.134 1301.94 574.617 1352.27C581.592 1416.25 525.914 1447 518.737 1504.28C510.775 1567.9 578.245 1639.61 507.71 1685.13C499.748 1685.19 495.736 1685.22 487.693 1685.26L487.733 1685.22ZM514.383 1685.03C584.434 1639.73 516.923 1567.58 524.341 1504.4C531.054 1447.28 585.946 1416.01 578.911 1352.39C573.347 1302.08 534.703 1263.1 536.578 1211.06C538.795 1150.05 589.07 1109.38 604.976 1053.19C618.804 1004.37 603.544 952.565 602.395 903.259C601.105 847.53 641.745 813.384 654.263 762.97C672.043 691.296 658.255 602.75 658.315 530.23C658.456 362.459 658.638 194.689 658.275 26.9181H660.472C660.835 194.689 660.593 362.459 660.432 530.23C660.351 602.951 673.938 691.155 656.461 763.051C644.224 813.444 603.887 847.711 605.258 903.299C606.487 952.606 621.687 1004.39 608.1 1053.27C592.477 1109.48 542.625 1150.37 540.589 1211.3C538.835 1263.36 577.52 1302.24 583.164 1352.55C590.26 1415.81 536.174 1447.64 529.905 1504.58C523.011 1567.31 590.562 1639.94 520.995 1684.99C518.354 1684.99 517.044 1685.01 514.383 1685.03ZM540.65 1684.87C608.826 1640.48 541.113 1566.49 546.475 1505.1C551.414 1448.71 603.141 1415.19 595.844 1353.06C589.937 1302.74 551.192 1264.11 552.543 1212.02C554.115 1151.34 602.637 1109.73 617.454 1053.45C630.375 1004.43 615.297 952.726 613.845 903.36C612.233 848.195 651.623 813.525 663.073 763.252C679.603 690.712 666.701 603.454 666.822 530.21C667.064 362.439 667.447 194.669 667.104 26.8979H669.322C669.664 194.669 669.241 362.439 668.959 530.21C668.838 603.636 681.497 690.591 665.29 763.333C654.102 813.565 615.015 848.356 616.708 903.4C618.22 952.767 633.258 1004.45 620.558 1053.51C606.004 1109.79 557.925 1151.64 556.494 1212.24C555.264 1264.33 594.07 1302.9 600.037 1353.2C607.374 1414.97 556.434 1449.05 551.938 1505.24C547.06 1566.17 614.833 1640.64 547.141 1684.79C544.54 1684.79 543.25 1684.81 540.629 1684.83L540.65 1684.87ZM553.632 1684.79C620.881 1640.86 553.047 1565.93 557.442 1505.45C561.514 1449.41 611.688 1414.79 604.29 1353.38C598.222 1303.07 559.417 1264.59 560.506 1212.49C561.776 1151.97 609.431 1109.87 623.723 1053.57C636.201 1004.45 621.223 952.807 619.631 903.42C617.857 848.537 656.642 813.585 667.588 763.413C683.473 690.47 671.055 603.817 671.176 530.21C671.479 362.439 671.942 194.669 671.62 26.8979H673.857C674.18 194.669 673.676 362.439 673.333 530.21C673.192 603.978 685.388 690.33 669.806 763.494C659.122 813.626 620.659 848.698 622.493 903.46C624.167 952.867 639.084 1004.49 626.827 1053.65C612.797 1109.97 565.566 1152.29 564.457 1212.73C563.489 1264.83 602.335 1303.25 608.483 1353.54C615.942 1414.58 566.533 1449.78 562.884 1505.61C558.974 1565.6 626.868 1641.06 560.082 1684.73C557.522 1684.73 556.232 1684.75 553.632 1684.77V1684.79Z" fill="#F7F7F7"/>
<path d="M566.575 1684.71C632.897 1641.26 564.942 1565.32 568.369 1505.79C571.574 1450.14 620.197 1414.38 612.698 1353.7C606.469 1303.41 567.603 1265.05 568.429 1212.97C569.397 1152.61 616.185 1110.05 629.953 1053.74C641.988 1004.51 627.091 952.908 625.357 903.501C623.442 848.879 661.602 813.686 672.024 763.594C687.284 690.249 675.33 604.179 675.492 530.25C675.854 362.479 676.399 194.709 676.096 26.9382H682.93C683.212 194.709 682.547 362.479 682.084 530.25C681.882 604.683 693.13 689.907 678.818 763.836C669.142 813.787 631.868 849.382 634.005 903.601C635.961 953.069 650.717 1004.59 639.307 1053.96C626.305 1110.31 580.766 1153.56 580.222 1213.69C579.759 1265.82 618.745 1303.93 625.176 1354.22C632.816 1413.84 586.471 1451.25 584.476 1506.33C582.46 1562.18 651.301 1644.75 585.564 1684.65C578.025 1684.69 574.215 1684.71 566.555 1684.77L566.575 1684.71ZM591.854 1684.55C657.167 1644.89 588.225 1561.82 589.818 1506.43C591.41 1451.53 637.009 1413.58 629.328 1354.32C622.817 1304.03 583.79 1265.98 584.153 1213.85C584.556 1153.8 629.671 1110.33 642.432 1053.98C653.62 1004.59 638.904 953.069 636.888 903.601C634.691 849.503 671.661 813.787 681.096 763.876C695.106 689.786 684.079 604.803 684.301 530.23C684.805 362.459 685.51 194.689 685.228 26.9181H687.546C687.809 194.689 687.042 362.459 686.518 530.23C686.276 604.964 697.081 689.685 683.374 763.957C674.161 813.827 637.493 849.664 639.75 903.621C641.827 953.129 656.502 1004.61 645.516 1054.04C632.997 1110.41 588.306 1154.1 588.024 1214.08C587.782 1266.2 626.849 1304.17 633.441 1354.47C641.162 1413.4 596.289 1451.87 595.099 1506.59C593.89 1561.5 662.933 1645.09 598.063 1684.51C595.583 1684.51 594.333 1684.53 591.834 1684.55H591.854ZM604.271 1684.47C668.718 1645.31 599.574 1561.17 600.401 1506.75C601.227 1452.21 645.355 1413.21 637.594 1354.63C630.941 1304.33 591.834 1266.42 591.975 1214.3C592.116 1154.4 636.404 1110.49 648.681 1054.1C659.466 1004.63 644.83 953.149 642.673 903.641C640.335 849.805 676.721 813.847 685.692 764.017C699.097 689.564 688.534 605.105 688.796 530.21C689.361 362.439 690.147 194.668 689.905 26.8979H696.981C697.182 194.668 696.255 362.439 695.59 530.21C695.287 605.548 705.145 689.283 692.647 764.239C684.361 813.908 648.822 850.248 651.342 903.702C653.68 953.27 668.194 1004.67 658.014 1054.26C646.423 1110.65 603.344 1155.21 603.566 1214.9C603.767 1267.05 642.996 1304.76 649.85 1355.05C657.692 1412.67 615.742 1453.2 616.024 1507.22C616.306 1560.19 685.773 1645.96 622.555 1684.37C615.318 1684.41 611.649 1684.43 604.251 1684.47H604.271ZM628.583 1684.33C691.397 1646.18 621.809 1559.87 621.184 1507.36C620.539 1453.52 661.804 1412.49 653.922 1355.19C647.008 1304.9 607.759 1267.27 607.436 1215.12C607.073 1155.51 649.769 1110.75 661.139 1054.34C671.137 1004.71 656.664 953.33 654.245 903.742C651.644 850.409 686.901 813.948 694.985 764.319C707.201 689.202 697.585 605.689 697.888 530.21C698.573 362.439 699.541 194.668 699.359 26.8979H701.758C701.92 194.668 700.912 362.439 700.186 530.21C699.863 605.81 709.237 689.122 697.323 764.38C689.462 813.948 654.486 850.53 657.147 903.742C659.627 953.33 674.06 1004.71 664.243 1054.38C653.095 1110.77 610.783 1155.75 611.266 1215.3C611.69 1267.47 650.979 1305.04 657.954 1355.31C665.856 1412.31 625.297 1453.82 626.285 1507.5C627.232 1559.52 696.961 1646.38 634.529 1684.29C632.151 1684.29 630.961 1684.31 628.562 1684.33H628.583ZM652.128 1684.19C713.43 1647.08 643.319 1558.54 641.444 1507.94C639.468 1454.77 677.991 1411.87 670.029 1355.73C662.893 1305.44 623.442 1268.07 622.737 1215.89C621.93 1156.56 663.114 1110.97 673.617 1054.56C682.89 1004.79 668.557 953.471 665.896 903.823C663.074 850.973 697.243 814.028 704.48 764.601C715.547 688.9 706.858 606.193 707.241 530.189C708.068 362.419 709.197 194.648 709.116 26.8577H711.596C711.656 194.628 710.487 362.419 709.62 530.189C709.217 606.313 717.684 688.819 706.879 764.662C699.843 814.048 665.936 851.074 668.819 903.823C671.541 953.492 685.833 1004.79 676.741 1054.58C666.44 1110.99 625.619 1156.76 626.547 1216.03C627.353 1268.21 666.844 1305.52 674.04 1355.81C682.023 1411.66 644.165 1455.01 646.463 1508.04C648.62 1558.17 718.873 1647.28 657.934 1684.13C655.635 1684.13 654.486 1684.13 652.168 1684.17L652.128 1684.19Z" fill="#F7F7F7"/>
<path d="M663.658 1684.15C724.254 1647.59 653.861 1557.87 651.422 1508.24C648.821 1455.37 686.014 1411.58 678.011 1356.02C670.774 1305.72 631.243 1268.48 630.336 1216.29C629.308 1157.08 669.766 1111.14 679.865 1054.72C688.775 1004.89 674.523 953.592 671.741 903.923C668.798 851.295 702.463 814.149 709.297 764.803C719.82 688.82 711.595 606.495 711.998 530.25C712.905 362.479 714.115 194.689 714.074 26.9182H716.574C716.574 194.689 715.324 362.479 714.397 530.25C713.974 606.615 721.956 688.779 711.716 764.883C705.063 814.169 671.681 851.416 674.664 903.944C677.487 953.632 691.719 1004.91 682.97 1054.78C673.072 1111.2 632.976 1157.34 634.085 1216.47C635.073 1268.68 674.664 1305.84 681.942 1356.16C689.965 1411.48 653.397 1455.68 656.3 1508.4C659.001 1557.59 729.536 1647.87 669.282 1684.15C667.044 1684.15 665.916 1684.15 663.638 1684.19L663.658 1684.15ZM674.886 1684.09C734.818 1648.07 664.142 1557.21 661.178 1508.51C657.993 1455.92 693.916 1411.32 685.893 1356.26C678.555 1305.96 638.923 1268.84 637.855 1216.63C636.645 1157.56 676.398 1111.24 686.094 1054.82C694.682 1004.93 680.47 953.673 677.587 903.964C674.543 851.557 707.704 814.189 714.155 764.964C724.154 688.739 716.373 606.736 716.816 530.25C717.804 362.479 719.074 194.689 719.114 26.9182H721.654C721.594 194.689 720.283 362.479 719.255 530.25C718.791 606.837 726.331 688.679 716.594 765.024C710.325 814.21 677.406 851.678 680.51 903.984C683.454 953.713 697.625 1004.95 689.199 1054.88C679.684 1111.28 640.274 1157.78 641.584 1216.79C642.733 1269 682.425 1306.07 689.803 1356.36C697.847 1411.18 662.529 1456.16 665.996 1508.63C669.181 1556.89 740.018 1648.31 680.41 1684.07C678.212 1684.07 677.104 1684.07 674.886 1684.09ZM685.893 1684.03C745.945 1652.34 673.979 1553.44 670.794 1508.75C667.044 1456.42 701.758 1411.06 693.714 1356.48C686.296 1306.17 646.543 1269.18 645.313 1216.96C643.923 1158.01 682.99 1111.32 692.323 1054.92C700.588 1004.97 686.437 953.733 683.454 904.004C680.309 851.798 712.986 814.25 719.074 765.105C728.568 688.638 721.231 606.938 721.715 530.25C722.763 362.479 724.134 194.689 724.214 26.9182H732.036C731.854 194.709 730.362 362.479 729.193 530.27C728.649 607.26 735.321 688.538 726.553 765.346C720.948 814.351 688.977 852.181 692.263 904.084C695.408 953.874 709.478 1005.07 701.657 1055.1C692.827 1111.48 654.748 1158.67 656.381 1217.44C657.832 1269.68 697.766 1306.51 705.285 1356.82C713.349 1410.76 680.369 1457.17 684.885 1509.13C688.654 1552.56 761.104 1653.04 701.939 1683.97C695.649 1684.01 692.424 1684.01 685.913 1684.05L685.893 1684.03ZM717.38 1683.89C775.719 1653.73 702.806 1551.65 698.552 1509.45C693.351 1457.79 724.718 1410.48 716.655 1357.12C709.055 1306.79 668.959 1270.13 667.306 1217.86C665.452 1159.27 702.644 1111.62 710.99 1055.27C718.409 1005.15 704.398 953.975 701.133 904.165C697.726 852.563 729.052 814.451 734.193 765.588C742.296 688.477 736.249 607.562 736.854 530.29C738.144 362.52 739.756 194.729 740.059 26.9383H742.78C742.417 194.729 740.785 362.52 739.454 530.29C738.829 607.642 744.675 688.477 736.773 765.668C731.774 814.491 700.669 852.664 704.096 904.185C707.422 954.015 721.412 1005.19 714.115 1055.33C705.91 1111.68 669 1159.47 670.935 1218.02C672.649 1270.29 712.825 1306.91 720.445 1357.24C728.508 1410.44 697.645 1458.03 703.048 1509.59C707.442 1551.41 780.517 1654.03 722.42 1683.91C720.424 1683.91 719.437 1683.91 717.401 1683.93L717.38 1683.89ZM727.339 1683.85C785.194 1654.23 711.958 1551.07 707.442 1509.65C701.838 1458.17 732.197 1410.32 724.154 1357.3C716.514 1306.95 676.277 1270.39 674.503 1218.12C672.528 1159.66 709.136 1111.7 717.219 1055.37C724.396 1005.21 710.426 954.055 707.059 904.205C703.592 852.765 734.495 814.512 739.373 765.749C747.074 688.457 741.43 607.743 742.075 530.29C743.466 362.52 745.139 194.729 745.542 26.9383H753.888C753.343 194.729 751.549 362.52 750.037 530.31C749.332 607.984 754.392 688.437 747.255 765.99C742.78 814.632 712.421 853.087 715.989 904.266C719.477 954.156 733.406 1005.29 726.553 1055.51C718.872 1111.8 683.05 1160.16 685.187 1218.49C687.102 1270.79 727.54 1307.21 735.221 1357.59C743.244 1410.17 714.256 1458.72 720.404 1509.98C725.242 1550.24 798.962 1655.04 741.732 1683.83C736.108 1683.85 733.245 1683.87 727.359 1683.89L727.339 1683.85Z" fill="#F7F7F7"/>
<path d="M746.409 1683.75C803.498 1655.22 729.496 1549.94 724.638 1510C718.409 1458.76 746.872 1410.05 738.869 1357.59C731.189 1307.21 690.67 1270.83 688.715 1218.53C686.538 1160.26 722.118 1111.78 729.677 1055.49C736.43 1005.25 722.501 954.116 718.973 904.225C715.365 853.127 745.542 814.612 749.916 766.011C756.891 688.397 752.013 608.005 752.739 530.27C754.311 362.479 756.125 194.689 756.73 26.8981H765.378C764.612 194.689 762.677 362.479 760.963 530.27C760.177 608.206 764.511 688.417 758 766.232C753.948 814.713 724.254 853.409 727.943 904.266C731.552 954.196 745.461 1005.33 738.99 1055.61C731.754 1111.84 696.859 1160.68 699.157 1218.79C701.213 1271.13 741.954 1307.37 749.654 1357.77C757.597 1409.87 730.322 1459.14 736.975 1510.22C742.034 1549.07 816.48 1656.04 759.875 1683.69C754.633 1683.69 751.952 1683.71 746.429 1683.73L746.409 1683.75ZM764.168 1683.69C820.633 1656.34 746.046 1548.81 740.926 1510.32C734.152 1459.28 761.064 1409.87 753.142 1357.87C745.461 1307.45 704.64 1271.26 702.544 1218.91C700.225 1160.86 734.898 1111.92 742.054 1055.69C748.445 1005.4 734.556 954.257 730.907 904.326C727.198 853.53 756.73 814.794 760.701 766.353C767.071 688.457 762.898 608.327 763.725 530.31C765.479 362.52 767.454 194.729 768.281 26.9182H771.244C770.357 194.709 768.341 362.52 766.547 530.31C765.701 608.367 769.712 688.477 763.463 766.433C759.572 814.834 730.181 853.61 733.931 904.346C737.599 954.297 751.509 1005.44 745.179 1055.75C738.124 1111.96 703.652 1161.01 705.991 1219.01C708.107 1271.38 749.009 1307.54 756.669 1357.95C764.572 1409.85 737.982 1459.42 744.877 1510.42C750.017 1548.59 824.765 1656.69 768.422 1683.71C766.749 1683.71 765.902 1683.71 764.189 1683.71L764.168 1683.69ZM772.554 1683.67C828.797 1656.95 753.928 1548.29 748.747 1510.44C741.772 1459.46 768.019 1409.77 760.157 1357.95C752.497 1307.52 711.514 1271.4 709.377 1219.01C707.019 1161.07 741.309 1111.92 748.284 1055.73C754.533 1005.42 740.643 954.277 736.934 904.306C733.185 853.631 762.435 814.814 766.245 766.454C772.373 688.437 768.543 608.387 769.389 530.27C771.244 362.479 773.28 194.689 774.248 26.8779H783.4C782.231 194.689 780.094 362.479 778.078 530.29C777.151 608.568 780.537 688.518 774.691 766.695C771.083 814.955 742.196 853.872 746.006 904.366C749.775 954.357 763.685 1005.5 757.597 1055.85C750.823 1111.96 717.058 1161.39 719.437 1219.19C721.594 1271.62 762.838 1307.6 770.438 1358.09C778.199 1409.67 752.799 1459.7 760.016 1510.62C765.237 1547.48 840.489 1657.89 784.488 1683.64C779.872 1683.64 777.493 1683.64 772.554 1683.67ZM795.616 1683.62C851.495 1658.9 775.921 1546.72 770.74 1510.76C763.402 1459.88 788.137 1409.59 780.497 1358.19C772.978 1307.66 731.471 1271.78 729.314 1219.31C726.936 1161.65 760.278 1112.02 766.91 1055.97C772.877 1005.6 758.947 954.438 755.137 904.427C751.307 854.094 779.892 815.116 783.359 766.957C789.004 688.638 786.02 608.75 787.028 530.331C789.205 362.52 791.443 194.729 792.834 26.9182H796.039C794.568 194.729 792.269 362.54 790.052 530.351C789.004 608.81 791.866 688.679 786.282 767.057C782.855 815.176 754.331 854.194 758.181 904.467C762.011 954.478 775.941 1005.66 770.014 1056.03C763.402 1112.06 730.201 1161.75 732.56 1219.37C734.717 1271.84 776.324 1307.7 783.803 1358.25C791.403 1409.61 766.85 1459.94 774.207 1510.82C779.368 1546.5 855.023 1659.28 799.164 1683.67C797.773 1683.67 797.067 1683.67 795.636 1683.67L795.616 1683.62ZM802.55 1683.62C858.41 1659.61 782.654 1546.22 777.554 1510.82C770.196 1459.94 794.568 1409.53 787.028 1358.23C779.59 1307.68 737.882 1271.86 735.745 1219.35C733.406 1161.77 766.507 1112.02 773.079 1056.03C778.985 1005.66 765.035 954.478 761.205 904.447C757.355 854.214 785.778 815.196 789.185 767.098C794.749 688.679 792.007 608.83 793.076 530.331C795.354 362.52 797.672 194.709 799.224 26.8981H802.49C800.857 194.709 798.499 362.52 796.16 530.331C795.072 608.87 797.692 688.719 792.149 767.178C788.762 815.236 760.399 854.255 764.249 904.467C768.099 954.498 782.069 1005.68 776.163 1056.07C769.611 1112.04 736.591 1161.85 738.91 1219.37C741.026 1271.88 782.835 1307.68 790.213 1358.25C797.692 1409.51 773.462 1459.96 780.819 1510.86C785.899 1545.99 861.716 1659.97 805.836 1683.64C804.526 1683.64 803.861 1683.64 802.51 1683.64L802.55 1683.62Z" fill="#F7F7F7"/>
</svg>
