<svg width="485" height="138" viewBox="0 0 485 138" fill="none" xmlns="http://www.w3.org/2000/svg">
<path d="M3.02466 104.455H10.2836C14.2012 104.455 17.0529 105.219 18.8388 106.746C20.6248 108.272 21.5177 110.289 21.5177 112.795C21.5177 114.379 21.2009 115.776 20.5671 116.986C19.9622 118.196 19.1125 119.074 18.0179 119.622C19.4005 120.342 20.4951 121.307 21.3017 122.516C22.1082 123.698 22.5115 125.455 22.5115 127.788C22.5115 133.837 17.7442 136.862 8.20963 136.862H3.02466V104.455ZM10.6725 117.634C12.3432 117.634 13.5818 117.36 14.3884 116.813C15.2237 116.266 15.6414 115.142 15.6414 113.443C15.6414 111.945 15.1661 110.922 14.2156 110.375C13.2938 109.799 12.0263 109.511 10.4132 109.511H9.16021V117.634H10.6725ZM10.5429 131.806C12.6169 131.806 14.1147 131.302 15.0365 130.294C15.9583 129.257 16.4192 128.134 16.4192 126.924C16.4192 125.051 15.9151 123.813 14.9069 123.208C13.9275 122.574 12.5448 122.257 10.7589 122.257H9.37625V131.806H10.5429Z" fill="#111111"/>
<path d="M37.1928 136.862V104.455H53.6551L53.1366 109.511H43.5444V117.245H50.3713L50.3281 122.689H43.5444V131.806H54.0008L53.4823 136.862H37.1928Z" fill="#111111"/>
<path d="M73.1591 137.121V124.029L65.3817 104.455H72.3382L76.7886 117.936L81.5847 104.455H87.0289L79.5539 123.294V136.602L73.1591 137.121Z" fill="#111111"/>
<path d="M109.194 137.466C105.535 137.466 102.957 135.897 101.459 132.757C99.9904 129.588 99.2558 125.498 99.2558 120.486C99.2558 115.157 100.048 111.052 101.632 108.171C103.217 105.291 105.766 103.851 109.28 103.851C115.992 103.851 119.348 109.338 119.348 120.313C119.348 125.239 118.584 129.329 117.058 132.584C115.56 135.839 112.938 137.466 109.194 137.466ZM109.28 132.368C110.807 132.368 111.815 131.374 112.305 129.387C112.794 127.37 113.039 124.331 113.039 120.27C113.039 117.015 112.794 114.321 112.305 112.19C111.844 110.029 110.836 108.949 109.28 108.949C107.725 108.949 106.716 110.015 106.256 112.147C105.795 114.278 105.564 116.971 105.564 120.226C105.564 124.317 105.795 127.37 106.256 129.387C106.745 131.374 107.753 132.368 109.28 132.368Z" fill="#111111"/>
<path d="M149.672 137.121L140.21 116.856V136.602L134.549 136.862V104.715L141.16 104.455L149.543 123.726V104.974L154.9 104.455V136.602L149.672 137.121Z" fill="#111111"/>
<path d="M171.334 104.455H177.988C182.251 104.455 185.434 105.809 187.537 108.517C189.639 111.225 190.691 115.315 190.691 120.788C190.691 123.698 190.288 126.362 189.481 128.782C188.703 131.201 187.45 133.16 185.722 134.658C183.994 136.127 181.79 136.862 179.111 136.862H171.334V104.455ZM178.549 131.806C180.739 131.806 182.251 130.87 183.086 128.998C183.95 127.097 184.383 124.763 184.383 121.998V120.529C184.383 118.541 184.253 116.784 183.994 115.258C183.763 113.702 183.201 112.363 182.309 111.239C181.444 110.087 180.134 109.511 178.377 109.511H177.642V131.806H178.549Z" fill="#111111"/>
<path d="M226.547 104.455H233.806C237.724 104.455 240.575 105.219 242.361 106.746C244.147 108.272 245.04 110.289 245.04 112.795C245.04 114.379 244.723 115.776 244.09 116.986C243.485 118.196 242.635 119.074 241.54 119.622C242.923 120.342 244.018 121.307 244.824 122.516C245.631 123.698 246.034 125.455 246.034 127.788C246.034 133.837 241.267 136.862 231.732 136.862H226.547V104.455ZM234.195 117.634C235.866 117.634 237.104 117.36 237.911 116.813C238.746 116.266 239.164 115.142 239.164 113.443C239.164 111.945 238.689 110.922 237.738 110.375C236.816 109.799 235.549 109.511 233.936 109.511H232.683V117.634H234.195ZM234.065 131.806C236.139 131.806 237.637 131.302 238.559 130.294C239.481 129.257 239.942 128.134 239.942 126.924C239.942 125.051 239.438 123.813 238.429 123.208C237.45 122.574 236.067 122.257 234.281 122.257H232.899V131.806H234.065Z" fill="#111111"/>
<path d="M269.487 122.646H267.024V136.602L260.715 137.121V104.715L268.406 104.455C272.122 104.455 275.032 105.204 277.134 106.702C279.237 108.171 280.289 110.433 280.289 113.486C280.289 115.502 279.885 117.159 279.079 118.455C278.301 119.751 277.163 120.831 275.665 121.696L278.56 128.738L281.498 135.738L275.276 137.423L269.487 122.646ZM269.184 117.98C270.682 117.98 271.849 117.677 272.684 117.072C273.548 116.439 273.98 115.258 273.98 113.529C273.98 110.85 272.655 109.511 270.005 109.511H267.024V117.98H269.184Z" fill="#111111"/>
<path d="M293.01 136.862L299.837 104.844L308.868 104.455L315.867 136.602L308.954 136.862L307.787 129.905H300.053L298.671 136.862H293.01ZM301.22 124.72H306.621L303.64 109.208L301.22 124.72Z" fill="#111111"/>
<path d="M344.85 137.121L335.387 116.856V136.602L329.727 136.862V104.715L336.338 104.455L344.72 123.726V104.974L350.078 104.455V136.602L344.85 137.121Z" fill="#111111"/>
<path d="M366.511 104.455H373.165C377.428 104.455 380.611 105.809 382.714 108.517C384.817 111.225 385.868 115.315 385.868 120.788C385.868 123.698 385.465 126.362 384.658 128.782C383.881 131.201 382.628 133.16 380.899 134.658C379.171 136.127 376.967 136.862 374.288 136.862H366.511V104.455ZM373.727 131.806C375.916 131.806 377.428 130.87 378.264 128.998C379.128 127.097 379.56 124.763 379.56 121.998V120.529C379.56 118.541 379.43 116.784 379.171 115.258C378.941 113.702 378.379 112.363 377.486 111.239C376.622 110.087 375.311 109.511 373.554 109.511H372.819V131.806H373.727Z" fill="#111111"/>
<path d="M400.806 137.121V104.974L407.157 104.455V136.602L400.806 137.121Z" fill="#111111"/>
<path d="M438.704 137.121L429.241 116.856V136.602L423.581 136.862V104.715L430.192 104.455L438.574 123.726V104.974L443.932 104.455V136.602L438.704 137.121Z" fill="#111111"/>
<path d="M468.316 137.466C465.118 137.466 462.771 135.868 461.273 132.67C459.804 129.473 459.069 125.426 459.069 120.529C459.069 117.792 459.415 115.157 460.106 112.622C460.826 110.087 461.964 107.999 463.52 106.357C465.104 104.686 467.12 103.851 469.569 103.851C471.672 103.851 473.414 104.369 474.797 105.406C476.208 106.414 477.245 107.768 477.908 109.468C478.599 111.138 478.945 112.996 478.945 115.041L472.939 115.43L472.809 114.523C472.636 112.823 472.334 111.47 471.902 110.461C471.47 109.453 470.663 108.949 469.482 108.949C467.984 108.949 466.919 110.159 466.285 112.579C465.68 114.969 465.378 117.735 465.378 120.875C465.378 123.093 465.45 124.979 465.594 126.535C465.738 128.09 466.112 129.459 466.717 130.64C467.322 131.792 468.258 132.368 469.526 132.368C470.591 132.368 471.427 131.705 472.032 130.38C472.665 129.055 472.982 127.428 472.982 125.498H469.785L470.303 120.659H479.074V136.602L476.655 136.862L475.186 130.856C474.927 131.979 474.595 132.987 474.192 133.88C473.818 134.773 473.155 135.594 472.204 136.343C471.254 137.092 469.958 137.466 468.316 137.466Z" fill="#111111"/>
<path d="M0 82.8515V0H4.21279V82.8515H0ZM8.42558 82.8515V0H21.0639V82.8515H8.42558ZM25.2767 82.8515V0H29.4895V82.8515H25.2767ZM42.1279 82.8515V0H46.3407V82.8515H42.1279ZM50.5535 82.8515V0H63.1918V82.8515H50.5535Z" fill="#111111"/>
<path d="M168.643 82.8515V0H181.282V82.8515H168.643ZM193.92 82.8515V0H198.133V82.8515H193.92ZM202.346 82.8515V0H214.984V82.8515H202.346ZM219.197 82.8515V0H223.409V82.8515H219.197ZM227.622 82.8515V0H231.835V82.8515H227.622Z" fill="#111111"/>
<path d="M337.286 82.8515V0H341.499V82.8515H337.286ZM345.712 82.8515V0H349.925V82.8515H345.712ZM354.138 82.8515V0H366.776V82.8515H354.138ZM370.989 82.8515V0H375.201V82.8515H370.989ZM387.84 82.8515V0H400.478V82.8515H387.84Z" fill="#111111"/>
<path d="M84.3218 82.8515V0H96.9601V82.8515H84.3218ZM101.173 82.8515V0H105.386V82.8515H101.173ZM109.599 82.8515V0H122.237V82.8515H109.599ZM134.875 82.8515V0H139.088V82.8515H134.875ZM143.301 82.8515V0H147.514V82.8515H143.301Z" fill="#111111"/>
<path d="M252.965 82.8515V0H265.603V82.8515H252.965ZM269.816 82.8515V0H274.029V82.8515H269.816ZM278.242 82.8515V0H290.88V82.8515H278.242ZM295.093 82.8515V0H299.306V82.8515H295.093ZM311.944 82.8515V0H316.157V82.8515H311.944Z" fill="#111111"/>
<path d="M421.608 82.8515V0H425.821V82.8515H421.608ZM430.034 82.8515V0H434.247V82.8515H430.034ZM438.459 82.8515V0H451.098V82.8515H438.459ZM463.736 82.8515V0H467.949V82.8515H463.736ZM472.162 82.8515V0H484.8V82.8515H472.162Z" fill="#111111"/>
</svg>
