<svg width="287" height="82" viewBox="0 0 287 82" fill="none" xmlns="http://www.w3.org/2000/svg">
<path d="M2.11719 62.1198H6.40217C8.7147 62.1198 10.3981 62.5704 11.4523 63.4716C12.5066 64.3728 13.0337 65.5631 13.0337 67.0424C13.0337 67.9776 12.8466 68.8023 12.4726 69.5165C12.1155 70.2306 11.6139 70.7493 10.9677 71.0723C11.7839 71.4974 12.4301 72.0671 12.9062 72.7812C13.3823 73.4784 13.6203 74.5156 13.6203 75.8929C13.6203 79.4638 10.8062 81.2492 5.17789 81.2492H2.11719V62.1198ZM6.63172 69.8991C7.61795 69.8991 8.34912 69.7375 8.82523 69.4145C9.31834 69.0914 9.5649 68.4282 9.5649 67.425C9.5649 66.5408 9.28433 65.9372 8.7232 65.6141C8.17908 65.274 7.43091 65.104 6.47869 65.104H5.73902V69.8991H6.63172ZM6.55521 78.265C7.77949 78.265 8.66369 77.9674 9.20781 77.3723C9.75194 76.7601 10.024 76.097 10.024 75.3828C10.024 74.2776 9.72643 73.5464 9.1313 73.1893C8.55316 72.8152 7.73698 72.6282 6.68273 72.6282H5.86655V78.265H6.55521Z" fill="#F7F7F7"/>
<path d="M22.2867 81.2492V62.1198H32.0045L31.6984 65.104H26.0361V69.6695H30.066L30.0405 72.8832H26.0361V78.265H32.2085L31.9024 81.2492H22.2867Z" fill="#F7F7F7"/>
<path d="M43.5178 81.4022V73.6739L38.9267 62.1198H43.0332L45.6603 70.0776L48.4914 62.1198H51.7051L47.2926 73.2403V81.0961L43.5178 81.4022Z" fill="#F7F7F7"/>
<path d="M64.7891 81.6062C62.6296 81.6062 61.1077 80.6795 60.2235 78.8261C59.3563 76.9557 58.9227 74.5411 58.9227 71.5824C58.9227 68.4367 59.3903 66.0137 60.3255 64.3133C61.2607 62.6129 62.7656 61.7627 64.8401 61.7627C68.802 61.7627 70.7829 65.0019 70.7829 71.4804C70.7829 74.3881 70.3323 76.8026 69.4311 78.7241C68.5469 80.6455 66.9996 81.6062 64.7891 81.6062ZM64.8401 78.5966C65.7413 78.5966 66.3364 78.0099 66.6255 76.8367C66.9145 75.6464 67.0591 73.8525 67.0591 71.4549C67.0591 69.5335 66.9145 67.9436 66.6255 66.6853C66.3534 65.41 65.7583 64.7724 64.8401 64.7724C63.9219 64.7724 63.3267 65.4015 63.0547 66.6598C62.7826 67.9181 62.6466 69.508 62.6466 71.4294C62.6466 73.844 62.7826 75.6464 63.0547 76.8367C63.3437 78.0099 63.9389 78.5966 64.8401 78.5966Z" fill="#F7F7F7"/>
<path d="M88.6836 81.4022L83.0979 69.44V81.0961L79.7566 81.2492V62.2728L83.659 62.1198L88.6071 73.4954V62.4258L91.7699 62.1198V81.0961L88.6836 81.4022Z" fill="#F7F7F7"/>
<path d="M101.47 62.1198H105.398C107.915 62.1198 109.794 62.919 111.035 64.5173C112.276 66.1157 112.897 68.5302 112.897 71.761C112.897 73.4784 112.659 75.0512 112.183 76.4796C111.724 77.9079 110.984 79.0642 109.964 79.9484C108.944 80.8156 107.643 81.2492 106.061 81.2492H101.47V62.1198ZM105.73 78.265C107.022 78.265 107.915 77.7124 108.408 76.6071C108.918 75.4848 109.173 74.1075 109.173 72.4752V71.608C109.173 70.4347 109.097 69.3974 108.944 68.4962C108.808 67.578 108.476 66.7873 107.949 66.1242C107.439 65.444 106.665 65.104 105.628 65.104H105.194V78.265H105.73Z" fill="#F7F7F7"/>
<path d="M134.063 62.1198H138.348C140.661 62.1198 142.344 62.5704 143.398 63.4716C144.453 64.3728 144.98 65.5631 144.98 67.0424C144.98 67.9776 144.793 68.8023 144.419 69.5165C144.061 70.2306 143.56 70.7493 142.914 71.0723C143.73 71.4974 144.376 72.0671 144.852 72.7812C145.328 73.4784 145.566 74.5156 145.566 75.8929C145.566 79.4638 142.752 81.2492 137.124 81.2492H134.063V62.1198ZM138.578 69.8991C139.564 69.8991 140.295 69.7375 140.771 69.4145C141.264 69.0914 141.511 68.4282 141.511 67.425C141.511 66.5408 141.23 65.9372 140.669 65.6141C140.125 65.274 139.377 65.104 138.425 65.104H137.685V69.8991H138.578ZM138.501 78.265C139.725 78.265 140.61 77.9674 141.154 77.3723C141.698 76.7601 141.97 76.097 141.97 75.3828C141.97 74.2776 141.672 73.5464 141.077 73.1893C140.499 72.8152 139.683 72.6282 138.629 72.6282H137.812V78.265H138.501Z" fill="#F7F7F7"/>
<path d="M159.41 72.8577H157.957V81.0961L154.233 81.4022V62.2728L158.773 62.1198C160.966 62.1198 162.684 62.5619 163.925 63.4461C165.166 64.3133 165.787 65.6481 165.787 67.4505C165.787 68.6408 165.549 69.6185 165.073 70.3837C164.614 71.1488 163.942 71.7865 163.058 72.2966L164.767 76.4541L166.501 80.586L162.828 81.5807L159.41 72.8577ZM159.232 70.1031C160.116 70.1031 160.805 69.9246 161.298 69.5675C161.808 69.1934 162.063 68.4962 162.063 67.476C162.063 65.8946 161.281 65.104 159.716 65.104H157.957V70.1031H159.232Z" fill="#F7F7F7"/>
<path d="M173.297 81.2492L177.326 62.3493L182.657 62.1198L186.789 81.0961L182.708 81.2492L182.02 77.1427H177.454L176.638 81.2492H173.297ZM178.143 74.082H181.331L179.571 64.9254L178.143 74.082Z" fill="#F7F7F7"/>
<path d="M203.897 81.4022L198.312 69.44V81.0961L194.97 81.2492V62.2728L198.873 62.1198L203.821 73.4954V62.4258L206.984 62.1198V81.0961L203.897 81.4022Z" fill="#F7F7F7"/>
<path d="M216.684 62.1198H220.612C223.129 62.1198 225.008 62.919 226.249 64.5173C227.49 66.1157 228.111 68.5302 228.111 71.761C228.111 73.4784 227.873 75.0512 227.397 76.4796C226.938 77.9079 226.198 79.0642 225.178 79.9484C224.157 80.8156 222.857 81.2492 221.275 81.2492H216.684V62.1198ZM220.944 78.265C222.236 78.265 223.129 77.7124 223.622 76.6071C224.132 75.4848 224.387 74.1075 224.387 72.4752V71.608C224.387 70.4347 224.31 69.3974 224.157 68.4962C224.021 67.578 223.69 66.7873 223.163 66.1242C222.653 65.444 221.879 65.104 220.842 65.104H220.408V78.265H220.944Z" fill="#F7F7F7"/>
<path d="M236.928 81.4022V62.4258L240.678 62.1198V81.0961L236.928 81.4022Z" fill="#F7F7F7"/>
<path d="M259.3 81.4022L253.714 69.44V81.0961L250.373 81.2492V62.2728L254.275 62.1198L259.223 73.4954V62.4258L262.386 62.1198V81.0961L259.3 81.4022Z" fill="#F7F7F7"/>
<path d="M276.78 81.6062C274.892 81.6062 273.506 80.6625 272.622 78.7751C271.755 76.8877 271.321 74.4986 271.321 71.608C271.321 69.9926 271.526 68.4367 271.934 66.9404C272.359 65.444 273.03 64.2113 273.949 63.242C274.884 62.2558 276.074 61.7627 277.519 61.7627C278.761 61.7627 279.789 62.0688 280.606 62.6809C281.439 63.276 282.051 64.0752 282.442 65.0785C282.85 66.0647 283.054 67.1614 283.054 68.3687L279.509 68.5983L279.432 68.0626C279.33 67.0594 279.152 66.2602 278.897 65.6651C278.642 65.07 278.166 64.7724 277.468 64.7724C276.584 64.7724 275.955 65.4866 275.581 66.9149C275.224 68.3262 275.045 69.9586 275.045 71.812C275.045 73.1213 275.088 74.2351 275.173 75.1533C275.258 76.0715 275.479 76.8792 275.836 77.5763C276.193 78.2565 276.746 78.5966 277.494 78.5966C278.123 78.5966 278.616 78.2055 278.973 77.4233C279.347 76.6411 279.534 75.6804 279.534 74.5411H277.647L277.953 71.6845H283.131V81.0961L281.702 81.2492L280.835 77.7039C280.682 78.367 280.487 78.9621 280.249 79.4893C280.027 80.0164 279.636 80.501 279.075 80.9431C278.514 81.3852 277.749 81.6062 276.78 81.6062Z" fill="#F7F7F7"/>
<path d="M0.331543 49.3669V0.459473H2.81836V49.3669H0.331543ZM5.30518 49.3669V0.459473H12.7656V49.3669H5.30518ZM15.2525 49.3669V0.459473H17.7393V49.3669H15.2525ZM25.1997 49.3669V0.459473H27.6866V49.3669H25.1997ZM30.1734 49.3669V0.459473H37.6339V49.3669H30.1734Z" fill="#F7F7F7"/>
<path d="M99.8821 49.3669V0.459473H107.343V49.3669H99.8821ZM114.803 49.3669V0.459473H117.29V49.3669H114.803ZM119.777 49.3669V0.459473H127.237V49.3669H119.777ZM129.724 49.3669V0.459473H132.211V49.3669H129.724ZM134.698 49.3669V0.459473H137.184V49.3669H134.698Z" fill="#F7F7F7"/>
<path d="M199.433 49.3669V0.459473H201.919V49.3669H199.433ZM204.406 49.3669V0.459473H206.893V49.3669H204.406ZM209.38 49.3669V0.459473H216.84V49.3669H209.38ZM219.327 49.3669V0.459473H221.814V49.3669H219.327ZM229.274 49.3669V0.459473H236.735V49.3669H229.274Z" fill="#F7F7F7"/>
<path d="M50.1069 49.3669V0.459473H57.5674V49.3669H50.1069ZM60.0542 49.3669V0.459473H62.541V49.3669H60.0542ZM65.0279 49.3669V0.459473H72.4883V49.3669H65.0279ZM79.9488 49.3669V0.459473H82.4356V49.3669H79.9488ZM84.9224 49.3669V0.459473H87.4092V49.3669H84.9224Z" fill="#F7F7F7"/>
<path d="M149.658 49.3669V0.459473H157.118V49.3669H149.658ZM159.605 49.3669V0.459473H162.092V49.3669H159.605ZM164.579 49.3669V0.459473H172.039V49.3669H164.579ZM174.526 49.3669V0.459473H177.013V49.3669H174.526ZM184.473 49.3669V0.459473H186.96V49.3669H184.473Z" fill="#F7F7F7"/>
<path d="M249.208 49.3669V0.459473H251.695V49.3669H249.208ZM254.182 49.3669V0.459473H256.668V49.3669H254.182ZM259.155 49.3669V0.459473H266.616V49.3669H259.155ZM274.076 49.3669V0.459473H276.563V49.3669H274.076ZM279.05 49.3669V0.459473H286.51V49.3669H279.05Z" fill="#F7F7F7"/>
</svg>
