<svg width="307" height="182" viewBox="0 0 307 182" fill="none" xmlns="http://www.w3.org/2000/svg">
<mask id="mask0_459_254" style="mask-type:luminance" maskUnits="userSpaceOnUse" x="138" y="0" width="169" height="150">
<path d="M138.636 0H306.516V149.333H138.636V0Z" fill="white"/>
</mask>
<g mask="url(#mask0_459_254)">
<path d="M302.636 0.546489C249.594 21.4944 194.766 39.0882 140.797 57.5465C138.933 58.1663 138.698 60.734 140.407 61.6715L189.563 88.7704C190.261 89.1559 190.964 89.234 191.74 88.9996C192.902 88.6142 193.99 88.6923 195.079 89.234C195.777 89.5465 196.396 89.4684 196.943 88.9996L289.667 15.7288C289.896 15.5725 290.131 15.5725 290.443 15.7288C290.599 15.8069 290.678 15.9632 290.829 16.1975C290.907 16.3538 290.907 16.51 290.75 16.6663C258.37 51.6246 235.615 77.8694 222.412 95.3069C218.839 99.9788 213.407 106.677 212.084 114.151C210.922 120.849 209.365 127.468 207.428 133.932C207.037 135.333 206.652 135.333 206.417 133.854C203.698 119.291 199.891 105.119 194.922 91.1819C194.688 90.635 194.381 90.4059 193.834 90.4059H193.136C192.594 90.4059 192.282 90.8694 192.36 91.4163L203.542 144.52C203.933 146.468 206.105 147.479 207.813 146.468L237.636 129.802C238.256 129.494 238.797 129.494 239.344 129.88L268.157 148.645C269.011 149.192 269.709 149.036 270.172 148.182C271.417 146 272.579 143.119 273.667 139.38C287.803 91.0257 300.381 46.7965 306.131 3.4267C306.516 1.40066 304.5 -0.156636 302.636 0.546489ZM197.329 84.9527C195.62 86.3538 193.756 86.4319 191.74 85.1871C177.761 76.6975 163.547 68.6767 149.027 61.1246C148.172 60.6611 148.172 60.2704 149.105 59.9579L291.761 8.56732C292.073 8.4892 292.386 8.56732 292.537 8.87982C292.693 9.18712 292.615 9.49962 292.386 9.73399C260.698 34.4944 229.016 59.5673 197.329 84.9527ZM233.287 126.687L212.24 138.213C211.698 138.526 211.073 138.057 211.23 137.437L216.204 113.921C216.277 113.453 216.902 113.218 217.287 113.531L233.365 125.52C233.75 125.833 233.672 126.458 233.287 126.687ZM275.922 117.578C274.292 123.885 271.573 131.906 267.766 141.562C267.454 142.338 266.99 142.494 266.214 142.031L218.688 109.479C217.912 108.937 217.678 107.843 218.297 107.145C242.605 73.2704 272.037 41.6611 299.839 10.9007C300.459 10.2809 301.469 10.7444 301.313 11.6819C294.714 47.6559 285.006 82.3069 275.922 117.578Z" fill="#2052B6"/>
</g>
<mask id="mask1_459_254" style="mask-type:luminance" maskUnits="userSpaceOnUse" x="0" y="84" width="199" height="98">
<path d="M0 84H198.635V181.453H0V84Z" fill="white"/>
</mask>
<g mask="url(#mask1_459_254)">
<path d="M26.3281 181.349C18.3281 181.349 9.55208 180.573 0 178.782L1.16667 172.318C44.5 180.261 67.0208 168.193 78.5104 155.188C67.6406 151.839 58.5521 146.391 53.0417 138.136C35.026 111.349 39.9167 97.8024 44.4219 92.1149C51.099 83.7868 64.8438 82.3076 80.375 88.3805C94.8958 93.9847 101.812 115.865 95.8281 137.047C94.4323 141.953 92.4115 146.703 89.6198 151.297C131.708 159.24 195.854 142.886 196.708 142.651L198.339 148.959C194.688 149.896 129.224 166.636 85.5781 156.979C74.3177 171.073 55.1354 181.349 26.3281 181.349ZM62.4375 91.2607C56.7656 91.2607 52.1875 92.9743 49.5469 96.3232C43.875 103.485 47.2188 117.813 58.4792 134.552C63.526 142.11 72.224 146.933 82.7812 149.818C86.6667 144.052 88.6094 138.683 89.5417 135.334C94.5104 117.578 89.2292 98.8909 78.0469 94.5316C72.3021 92.3493 67.0208 91.2607 62.4375 91.2607Z" fill="#2052B6"/>
</g>
</svg>
